G04 EAGLE Gerber RS-274X export*
G75*
%MOMM*%
%FSLAX34Y34*%
%LPD*%
%INSoldermask Top*%
%IPPOS*%
%AMOC8*
5,1,8,0,0,1.08239X$1,22.5*%
G01*
%ADD10C,3.101600*%
%ADD11C,0.326897*%
%ADD12C,0.357631*%
%ADD13R,1.901600X2.301600*%
%ADD14R,1.451600X0.701600*%
%ADD15R,2.101600X1.301600*%
%ADD16R,0.736600X1.371600*%
%ADD17C,0.203200*%
%ADD18C,0.648863*%
%ADD19R,0.609600X1.117600*%
%ADD20R,1.752600X1.752600*%
%ADD21C,1.752600*%


D10*
X30000Y25000D03*
X334800Y25000D03*
X30000Y431400D03*
X334800Y431400D03*
D11*
X298213Y85869D02*
X291575Y85869D01*
X298213Y85869D02*
X298213Y79231D01*
X291575Y79231D01*
X291575Y85869D01*
X291575Y82337D02*
X298213Y82337D01*
X298213Y85443D02*
X291575Y85443D01*
X282973Y85869D02*
X276335Y85869D01*
X282973Y85869D02*
X282973Y79231D01*
X276335Y79231D01*
X276335Y85869D01*
X276335Y82337D02*
X282973Y82337D01*
X282973Y85443D02*
X276335Y85443D01*
X246109Y161781D02*
X246109Y168419D01*
X252747Y168419D01*
X252747Y161781D01*
X246109Y161781D01*
X246109Y164887D02*
X252747Y164887D01*
X252747Y167993D02*
X246109Y167993D01*
X246109Y153179D02*
X246109Y146541D01*
X246109Y153179D02*
X252747Y153179D01*
X252747Y146541D01*
X246109Y146541D01*
X246109Y149647D02*
X252747Y149647D01*
X252747Y152753D02*
X246109Y152753D01*
X231123Y161781D02*
X231123Y168419D01*
X237761Y168419D01*
X237761Y161781D01*
X231123Y161781D01*
X231123Y164887D02*
X237761Y164887D01*
X237761Y167993D02*
X231123Y167993D01*
X231123Y153179D02*
X231123Y146541D01*
X231123Y153179D02*
X237761Y153179D01*
X237761Y146541D01*
X231123Y146541D01*
X231123Y149647D02*
X237761Y149647D01*
X237761Y152753D02*
X231123Y152753D01*
X211819Y161781D02*
X211819Y168419D01*
X218457Y168419D01*
X218457Y161781D01*
X211819Y161781D01*
X211819Y164887D02*
X218457Y164887D01*
X218457Y167993D02*
X211819Y167993D01*
X211819Y153179D02*
X211819Y146541D01*
X211819Y153179D02*
X218457Y153179D01*
X218457Y146541D01*
X211819Y146541D01*
X211819Y149647D02*
X218457Y149647D01*
X218457Y152753D02*
X211819Y152753D01*
X188231Y153179D02*
X188231Y146541D01*
X181593Y146541D01*
X181593Y153179D01*
X188231Y153179D01*
X188231Y149647D02*
X181593Y149647D01*
X181593Y152753D02*
X188231Y152753D01*
X188231Y161781D02*
X188231Y168419D01*
X188231Y161781D02*
X181593Y161781D01*
X181593Y168419D01*
X188231Y168419D01*
X188231Y164887D02*
X181593Y164887D01*
X181593Y167993D02*
X188231Y167993D01*
D12*
X87874Y190891D02*
X80274Y190891D01*
X80274Y202301D01*
X87874Y202301D01*
X87874Y190891D01*
X87874Y194288D02*
X80274Y194288D01*
X80274Y197685D02*
X87874Y197685D01*
X87874Y201082D02*
X80274Y201082D01*
X98054Y190891D02*
X105654Y190891D01*
X98054Y190891D02*
X98054Y202301D01*
X105654Y202301D01*
X105654Y190891D01*
X105654Y194288D02*
X98054Y194288D01*
X98054Y197685D02*
X105654Y197685D01*
X105654Y201082D02*
X98054Y201082D01*
X61204Y90541D02*
X53604Y90541D01*
X61204Y90541D02*
X61204Y79131D01*
X53604Y79131D01*
X53604Y90541D01*
X53604Y82528D02*
X61204Y82528D01*
X61204Y85925D02*
X53604Y85925D01*
X53604Y89322D02*
X61204Y89322D01*
X43424Y90541D02*
X35824Y90541D01*
X43424Y90541D02*
X43424Y79131D01*
X35824Y79131D01*
X35824Y90541D01*
X35824Y82528D02*
X43424Y82528D01*
X43424Y85925D02*
X35824Y85925D01*
X35824Y89322D02*
X43424Y89322D01*
D13*
X74268Y110744D03*
X23268Y110744D03*
D14*
X312800Y285000D03*
X312800Y295000D03*
X312800Y305000D03*
X312800Y315000D03*
D15*
X349550Y328000D03*
X349550Y272000D03*
D14*
X52000Y315000D03*
X52000Y305000D03*
X52000Y295000D03*
X52000Y285000D03*
D15*
X15250Y272000D03*
X15250Y328000D03*
D16*
X264668Y385318D03*
X272796Y385318D03*
X280924Y385318D03*
D17*
X281686Y385318D02*
X264160Y385318D01*
D16*
X330708Y117602D03*
X338836Y117602D03*
D18*
X24876Y169970D02*
X24876Y175498D01*
X56404Y175498D01*
X56404Y169970D01*
X24876Y169970D01*
X24876Y145498D02*
X24876Y139970D01*
X24876Y145498D02*
X56404Y145498D01*
X56404Y139970D01*
X24876Y139970D01*
D11*
X284243Y339835D02*
X284243Y346473D01*
X284243Y339835D02*
X277605Y339835D01*
X277605Y346473D01*
X284243Y346473D01*
X284243Y342941D02*
X277605Y342941D01*
X277605Y346047D02*
X284243Y346047D01*
X284243Y355075D02*
X284243Y361713D01*
X284243Y355075D02*
X277605Y355075D01*
X277605Y361713D01*
X284243Y361713D01*
X284243Y358181D02*
X277605Y358181D01*
X277605Y361287D02*
X284243Y361287D01*
X267987Y346473D02*
X267987Y339835D01*
X261349Y339835D01*
X261349Y346473D01*
X267987Y346473D01*
X267987Y342941D02*
X261349Y342941D01*
X261349Y346047D02*
X267987Y346047D01*
X267987Y355075D02*
X267987Y361713D01*
X267987Y355075D02*
X261349Y355075D01*
X261349Y361713D01*
X267987Y361713D01*
X267987Y358181D02*
X261349Y358181D01*
X261349Y361287D02*
X267987Y361287D01*
X196833Y168419D02*
X196833Y161781D01*
X196833Y168419D02*
X203471Y168419D01*
X203471Y161781D01*
X196833Y161781D01*
X196833Y164887D02*
X203471Y164887D01*
X203471Y167993D02*
X196833Y167993D01*
X196833Y153179D02*
X196833Y146541D01*
X196833Y153179D02*
X203471Y153179D01*
X203471Y146541D01*
X196833Y146541D01*
X196833Y149647D02*
X203471Y149647D01*
X203471Y152753D02*
X196833Y152753D01*
X166607Y161781D02*
X166607Y168419D01*
X173245Y168419D01*
X173245Y161781D01*
X166607Y161781D01*
X166607Y164887D02*
X173245Y164887D01*
X173245Y167993D02*
X166607Y167993D01*
X166607Y153179D02*
X166607Y146541D01*
X166607Y153179D02*
X173245Y153179D01*
X173245Y146541D01*
X166607Y146541D01*
X166607Y149647D02*
X173245Y149647D01*
X173245Y152753D02*
X166607Y152753D01*
X89899Y120667D02*
X89899Y114029D01*
X89899Y120667D02*
X96537Y120667D01*
X96537Y114029D01*
X89899Y114029D01*
X89899Y117135D02*
X96537Y117135D01*
X96537Y120241D02*
X89899Y120241D01*
X89899Y105427D02*
X89899Y98789D01*
X89899Y105427D02*
X96537Y105427D01*
X96537Y98789D01*
X89899Y98789D01*
X89899Y101895D02*
X96537Y101895D01*
X96537Y105001D02*
X89899Y105001D01*
X111015Y105427D02*
X111015Y98789D01*
X104377Y98789D01*
X104377Y105427D01*
X111015Y105427D01*
X111015Y101895D02*
X104377Y101895D01*
X104377Y105001D02*
X111015Y105001D01*
X111015Y114029D02*
X111015Y120667D01*
X111015Y114029D02*
X104377Y114029D01*
X104377Y120667D01*
X111015Y120667D01*
X111015Y117135D02*
X104377Y117135D01*
X104377Y120241D02*
X111015Y120241D01*
X298213Y105681D02*
X298213Y99043D01*
X291575Y99043D01*
X291575Y105681D01*
X298213Y105681D01*
X298213Y102149D02*
X291575Y102149D01*
X291575Y105255D02*
X298213Y105255D01*
X298213Y114283D02*
X298213Y120921D01*
X298213Y114283D02*
X291575Y114283D01*
X291575Y120921D01*
X298213Y120921D01*
X298213Y117389D02*
X291575Y117389D01*
X291575Y120495D02*
X298213Y120495D01*
D19*
X74422Y146304D03*
X83820Y146304D03*
X93218Y146304D03*
X93218Y169164D03*
X83820Y169164D03*
X74422Y169164D03*
D20*
X144300Y441400D03*
D21*
X169700Y441400D03*
X195100Y441400D03*
X220500Y441400D03*
D11*
X59453Y69613D02*
X52815Y69613D01*
X59453Y69613D02*
X59453Y62975D01*
X52815Y62975D01*
X52815Y69613D01*
X52815Y66081D02*
X59453Y66081D01*
X59453Y69187D02*
X52815Y69187D01*
X44213Y69613D02*
X37575Y69613D01*
X44213Y69613D02*
X44213Y62975D01*
X37575Y62975D01*
X37575Y69613D01*
X37575Y66081D02*
X44213Y66081D01*
X44213Y69187D02*
X37575Y69187D01*
M02*
