M48
;GenerationSoftware,Autodesk,EAGLE,9.2.2*%
;CreationDate,2018-12-07T02:16:56Z*%
FMAT,2
ICI,OFF
METRIC,TZ,000.000
T3C0.305
T2C0.889
T1C3.000
%
G90
M71
T1
X33480Y2500
X3000Y2500
X3000Y43140
X33480Y43140
T2
X22050Y44140
X14430Y44140
X16970Y44140
X19510Y44140
T3
X34798Y28956
X17272Y27686
X17272Y26924
X17272Y26162
X2286Y8636
X2286Y7620
X2286Y6604
X2286Y5588
X3302Y5588
X4318Y5588
X29464Y7112
X29464Y6096
X29464Y5334
X28448Y5334
X27432Y5334
X26162Y13716
X27178Y13716
X28194Y13716
X17272Y13716
X34798Y31242
X8636Y7620
X23876Y44196
X24892Y44196
X25908Y44196
X26924Y44196
X14656Y27686
X14656Y30500
X23444Y13716
X16307Y28524
X29413Y31500
X15646Y29500
X18237Y11405
X18491Y13716
X1524Y31242
X21514Y13767
X24943Y13691
X6477Y5766
X27965Y9601
X1524Y29972
X7620Y6858
X1524Y28702
X5334Y33274
X6096Y34036
X6858Y34798
X34798Y29972
X20015Y13716
M30