G04 EAGLE Gerber RS-274X export*
G75*
%MOMM*%
%FSLAX34Y34*%
%LPD*%
%INSilkscreen Top*%
%IPPOS*%
%AMOC8*
5,1,8,0,0,1.08239X$1,22.5*%
G01*
%ADD10C,0.101600*%
%ADD11C,0.127000*%
%ADD12C,0.254000*%
%ADD13R,0.300000X2.100000*%
%ADD14C,0.400000*%
%ADD15C,0.152400*%
%ADD16C,0.200000*%
%ADD17R,0.120000X0.020000*%
%ADD18R,0.340000X0.020000*%
%ADD19R,0.320000X0.020000*%
%ADD20R,0.140000X0.020000*%
%ADD21R,0.280000X0.020000*%
%ADD22R,0.360000X0.020000*%
%ADD23R,0.420000X0.020000*%
%ADD24R,0.380000X0.020000*%
%ADD25R,0.480000X0.020000*%
%ADD26R,0.540000X0.020000*%
%ADD27R,0.560000X0.020000*%
%ADD28R,0.400000X0.020000*%
%ADD29R,0.640000X0.020000*%
%ADD30R,0.620000X0.020000*%
%ADD31R,0.700000X0.020000*%
%ADD32R,0.660000X0.020000*%
%ADD33R,0.740000X0.020000*%
%ADD34R,1.080000X0.020000*%
%ADD35R,0.800000X0.020000*%
%ADD36R,1.100000X0.020000*%
%ADD37R,0.440000X0.020000*%
%ADD38R,0.840000X0.020000*%
%ADD39R,1.120000X0.020000*%
%ADD40R,0.460000X0.020000*%
%ADD41R,0.860000X0.020000*%
%ADD42R,0.900000X0.020000*%
%ADD43R,1.140000X0.020000*%
%ADD44R,0.920000X0.020000*%
%ADD45R,1.160000X0.020000*%
%ADD46R,0.960000X0.020000*%
%ADD47R,0.500000X0.020000*%
%ADD48R,0.520000X0.020000*%
%ADD49R,0.940000X0.020000*%
%ADD50R,0.260000X0.020000*%
%ADD51R,0.180000X0.020000*%
%ADD52R,0.580000X0.020000*%
%ADD53R,0.060000X0.020000*%
%ADD54R,0.600000X0.020000*%
%ADD55R,0.300000X0.020000*%
%ADD56R,0.040000X0.020000*%
%ADD57R,0.100000X0.020000*%
%ADD58R,0.160000X0.020000*%
%ADD59R,0.220000X0.020000*%
%ADD60R,0.980000X0.020000*%
%ADD61R,0.880000X0.020000*%
%ADD62R,0.760000X0.020000*%
%ADD63R,1.060000X0.020000*%
%ADD64R,0.720000X0.020000*%
%ADD65R,0.820000X0.020000*%
%ADD66R,1.180000X0.020000*%
%ADD67R,1.340000X0.020000*%
%ADD68R,1.460000X0.020000*%
%ADD69R,1.600000X0.020000*%
%ADD70R,1.700000X0.020000*%
%ADD71R,1.820000X0.020000*%
%ADD72R,1.900000X0.020000*%
%ADD73R,1.980000X0.020000*%
%ADD74R,2.100000X0.020000*%
%ADD75R,2.160000X0.020000*%
%ADD76R,2.260000X0.020000*%
%ADD77R,2.340000X0.020000*%
%ADD78R,2.400000X0.020000*%
%ADD79R,2.480000X0.020000*%
%ADD80R,2.540000X0.020000*%
%ADD81R,2.600000X0.020000*%
%ADD82R,2.680000X0.020000*%
%ADD83R,2.720000X0.020000*%
%ADD84R,2.800000X0.020000*%
%ADD85R,2.840000X0.020000*%
%ADD86R,2.900000X0.020000*%
%ADD87R,2.960000X0.020000*%
%ADD88R,3.000000X0.020000*%
%ADD89R,3.060000X0.020000*%
%ADD90R,3.120000X0.020000*%
%ADD91R,3.160000X0.020000*%
%ADD92R,3.200000X0.020000*%
%ADD93R,3.260000X0.020000*%
%ADD94R,3.300000X0.020000*%
%ADD95R,3.340000X0.020000*%
%ADD96R,3.380000X0.020000*%
%ADD97R,3.420000X0.020000*%
%ADD98R,3.460000X0.020000*%
%ADD99R,3.520000X0.020000*%
%ADD100R,3.540000X0.020000*%
%ADD101R,3.580000X0.020000*%
%ADD102R,3.620000X0.020000*%
%ADD103R,3.660000X0.020000*%
%ADD104R,3.700000X0.020000*%
%ADD105R,3.740000X0.020000*%
%ADD106R,3.780000X0.020000*%
%ADD107R,3.800000X0.020000*%
%ADD108R,3.840000X0.020000*%
%ADD109R,3.860000X0.020000*%
%ADD110R,3.900000X0.020000*%
%ADD111R,3.940000X0.020000*%
%ADD112R,3.960000X0.020000*%
%ADD113R,3.980000X0.020000*%
%ADD114R,4.020000X0.020000*%
%ADD115R,4.060000X0.020000*%
%ADD116R,4.080000X0.020000*%
%ADD117R,4.100000X0.020000*%
%ADD118R,4.120000X0.020000*%
%ADD119R,4.160000X0.020000*%
%ADD120R,4.180000X0.020000*%
%ADD121R,4.200000X0.020000*%
%ADD122R,4.240000X0.020000*%
%ADD123R,4.260000X0.020000*%
%ADD124R,4.280000X0.020000*%
%ADD125R,4.300000X0.020000*%
%ADD126R,4.320000X0.020000*%
%ADD127R,4.340000X0.020000*%
%ADD128R,4.380000X0.020000*%
%ADD129R,4.400000X0.020000*%
%ADD130R,4.440000X0.020000*%
%ADD131R,4.460000X0.020000*%
%ADD132R,4.500000X0.020000*%
%ADD133R,4.520000X0.020000*%
%ADD134R,4.540000X0.020000*%
%ADD135R,4.560000X0.020000*%
%ADD136R,4.580000X0.020000*%
%ADD137R,4.600000X0.020000*%
%ADD138R,4.620000X0.020000*%
%ADD139R,4.640000X0.020000*%
%ADD140R,4.660000X0.020000*%
%ADD141R,4.680000X0.020000*%
%ADD142R,4.700000X0.020000*%
%ADD143R,4.720000X0.020000*%
%ADD144R,4.740000X0.020000*%
%ADD145R,0.680000X0.020000*%
%ADD146R,1.480000X0.020000*%
%ADD147R,1.580000X0.020000*%
%ADD148R,1.560000X0.020000*%
%ADD149R,1.540000X0.020000*%
%ADD150R,1.520000X0.020000*%
%ADD151R,1.500000X0.020000*%
%ADD152R,1.440000X0.020000*%
%ADD153R,1.400000X0.020000*%
%ADD154R,1.420000X0.020000*%
%ADD155R,1.380000X0.020000*%
%ADD156R,1.360000X0.020000*%
%ADD157R,1.320000X0.020000*%
%ADD158R,1.300000X0.020000*%
%ADD159R,1.260000X0.020000*%
%ADD160R,1.220000X0.020000*%
%ADD161R,1.200000X0.020000*%
%ADD162R,1.040000X0.020000*%
%ADD163R,1.020000X0.020000*%
%ADD164R,1.000000X0.020000*%
%ADD165R,1.280000X0.020000*%
%ADD166R,0.780000X0.020000*%
%ADD167R,1.240000X0.020000*%
%ADD168R,0.020000X0.020000*%
%ADD169R,1.840000X0.020000*%
%ADD170R,1.800000X0.020000*%
%ADD171R,1.780000X0.020000*%
%ADD172R,1.760000X0.020000*%
%ADD173R,1.740000X0.020000*%
%ADD174R,1.680000X0.020000*%
%ADD175R,1.660000X0.020000*%
%ADD176R,1.620000X0.020000*%

G36*
X209434Y206984D02*
X209434Y206984D01*
X225308Y206984D01*
X228480Y206987D01*
X231648Y206991D01*
X234820Y206991D01*
X237991Y206994D01*
X241163Y207000D01*
X244334Y207003D01*
X247503Y207007D01*
X250674Y207013D01*
X253846Y207019D01*
X257018Y207029D01*
X260186Y207042D01*
X263354Y207074D01*
X263359Y207078D01*
X263365Y207080D01*
X263364Y207082D01*
X263366Y207084D01*
X263361Y207090D01*
X263359Y207097D01*
X260603Y208262D01*
X257845Y209423D01*
X255083Y210582D01*
X252324Y211740D01*
X249562Y212899D01*
X246803Y214058D01*
X244041Y215216D01*
X241279Y216375D01*
X238521Y217533D01*
X235759Y218692D01*
X233016Y219841D01*
X230273Y220993D01*
X227531Y222145D01*
X224791Y223297D01*
X222048Y224452D01*
X219309Y225608D01*
X216566Y226766D01*
X213830Y227922D01*
X211090Y229087D01*
X208385Y230258D01*
X211120Y231866D01*
X216644Y235079D01*
X219406Y236685D01*
X222168Y238289D01*
X224933Y239895D01*
X227698Y241499D01*
X230463Y243102D01*
X233225Y244702D01*
X235991Y246306D01*
X238749Y247906D01*
X241508Y249503D01*
X244267Y251103D01*
X247026Y252703D01*
X249784Y254300D01*
X252543Y255901D01*
X255302Y257498D01*
X258057Y259098D01*
X260816Y260698D01*
X263575Y262295D01*
X263577Y262302D01*
X263581Y262305D01*
X263581Y302486D01*
X263570Y302498D01*
X263569Y302498D01*
X247663Y302498D01*
X244482Y302495D01*
X212666Y302495D01*
X210390Y302493D01*
X210359Y302493D01*
X210358Y302493D01*
X209485Y302492D01*
X180854Y302492D01*
X177673Y302489D01*
X168130Y302489D01*
X168125Y302485D01*
X168119Y302483D01*
X168120Y302480D01*
X168118Y302478D01*
X168123Y302473D01*
X168125Y302466D01*
X168765Y302191D01*
X171521Y301032D01*
X174279Y299873D01*
X177038Y298715D01*
X182556Y296398D01*
X185314Y295242D01*
X188070Y294084D01*
X190829Y292925D01*
X193587Y291770D01*
X196346Y290611D01*
X199050Y289479D01*
X201752Y288342D01*
X204456Y287206D01*
X207157Y286070D01*
X209861Y284937D01*
X212563Y283798D01*
X215264Y282662D01*
X217968Y281522D01*
X220669Y280383D01*
X223342Y279240D01*
X220620Y277610D01*
X217864Y275994D01*
X215102Y274378D01*
X212340Y272768D01*
X209578Y271158D01*
X206816Y269552D01*
X204051Y267945D01*
X201286Y266339D01*
X198521Y264735D01*
X195756Y263129D01*
X192988Y261525D01*
X190219Y259922D01*
X187448Y258315D01*
X184679Y256712D01*
X181911Y255105D01*
X176374Y251898D01*
X173606Y250292D01*
X170838Y248688D01*
X168069Y247082D01*
X168067Y247075D01*
X168063Y247071D01*
X168063Y206993D01*
X168074Y206981D01*
X168075Y206982D01*
X168075Y206981D01*
X206253Y206981D01*
X209434Y206984D01*
G37*
G36*
X206356Y181539D02*
X206356Y181539D01*
X206357Y181538D01*
X208504Y181794D01*
X208506Y181795D01*
X208507Y181795D01*
X211096Y182854D01*
X211097Y182856D01*
X211099Y182856D01*
X213285Y184603D01*
X213286Y184605D01*
X213287Y184605D01*
X214718Y186558D01*
X214718Y186560D01*
X214719Y186560D01*
X215315Y188081D01*
X215600Y188820D01*
X215599Y188822D01*
X215600Y188823D01*
X215888Y191229D01*
X215887Y191231D01*
X215888Y191233D01*
X215440Y194295D01*
X215438Y194297D01*
X215439Y194299D01*
X213999Y197083D01*
X213996Y197084D01*
X213996Y197087D01*
X211711Y199231D01*
X211709Y199231D01*
X211708Y199233D01*
X208869Y200568D01*
X208867Y200567D01*
X208866Y200569D01*
X205953Y200857D01*
X205952Y200856D01*
X205951Y200857D01*
X203561Y200719D01*
X203559Y200718D01*
X203557Y200719D01*
X201307Y199912D01*
X201306Y199910D01*
X201305Y199911D01*
X198795Y198154D01*
X198795Y198151D01*
X198793Y198151D01*
X196984Y195680D01*
X196985Y195678D01*
X196983Y195677D01*
X196135Y193520D01*
X196135Y193519D01*
X196134Y193518D01*
X196135Y193517D01*
X196134Y193517D01*
X195964Y191203D01*
X195965Y191202D01*
X195964Y191201D01*
X196115Y188974D01*
X196116Y188972D01*
X196116Y188970D01*
X196439Y188081D01*
X196871Y186874D01*
X196873Y186873D01*
X196872Y186871D01*
X198700Y184362D01*
X198702Y184362D01*
X198703Y184359D01*
X201231Y182551D01*
X201233Y182552D01*
X201234Y182550D01*
X204188Y181593D01*
X204190Y181594D01*
X204191Y181592D01*
X206355Y181538D01*
X206356Y181539D01*
G37*
G36*
X183772Y181811D02*
X183772Y181811D01*
X183772Y181812D01*
X183772Y185438D01*
X183762Y185450D01*
X183761Y185449D01*
X183760Y185450D01*
X183175Y185453D01*
X183169Y185453D01*
X181181Y185463D01*
X180771Y185465D01*
X180765Y185465D01*
X178605Y185476D01*
X178413Y185477D01*
X178408Y185477D01*
X176489Y185489D01*
X176484Y185489D01*
X176025Y185492D01*
X174203Y185501D01*
X174197Y185501D01*
X173475Y185504D01*
X175173Y187475D01*
X176892Y189469D01*
X178607Y191460D01*
X180323Y193451D01*
X182041Y195444D01*
X183757Y197435D01*
X183757Y197440D01*
X183760Y197443D01*
X183772Y200592D01*
X183762Y200604D01*
X183761Y200603D01*
X183760Y200604D01*
X168395Y200604D01*
X168383Y200594D01*
X168384Y200593D01*
X168383Y200592D01*
X168383Y196966D01*
X168394Y196954D01*
X168395Y196955D01*
X168395Y196954D01*
X170885Y196938D01*
X173372Y196925D01*
X175862Y196912D01*
X178326Y196897D01*
X176630Y194926D01*
X174915Y192935D01*
X173203Y190944D01*
X171491Y188950D01*
X169778Y186960D01*
X168066Y184969D01*
X168066Y184966D01*
X168065Y184965D01*
X168066Y184964D01*
X168063Y184961D01*
X168063Y181812D01*
X168074Y181800D01*
X168075Y181801D01*
X168075Y181800D01*
X183760Y181800D01*
X183772Y181811D01*
G37*
G36*
X236756Y181542D02*
X236756Y181542D01*
X236757Y181541D01*
X238895Y181794D01*
X238897Y181795D01*
X238898Y181795D01*
X241190Y182700D01*
X241191Y182702D01*
X241192Y182702D01*
X243161Y184187D01*
X243161Y184188D01*
X243162Y184188D01*
X243850Y184844D01*
X243851Y184860D01*
X243850Y184860D01*
X243850Y184861D01*
X242525Y186180D01*
X241197Y187498D01*
X241181Y187499D01*
X240609Y187035D01*
X238317Y185638D01*
X236353Y185380D01*
X234392Y185642D01*
X232205Y187229D01*
X230988Y189653D01*
X230831Y191253D01*
X230988Y192857D01*
X232051Y195038D01*
X233926Y196574D01*
X236129Y197114D01*
X238365Y196708D01*
X240344Y195573D01*
X241154Y195106D01*
X241166Y195108D01*
X241169Y195108D01*
X242292Y196421D01*
X243505Y197838D01*
X243505Y197844D01*
X243507Y197846D01*
X243506Y197847D01*
X243507Y197850D01*
X243354Y198365D01*
X243350Y198367D01*
X243349Y198371D01*
X241464Y199734D01*
X241462Y199734D01*
X241462Y199736D01*
X239301Y200610D01*
X239299Y200609D01*
X239298Y200610D01*
X236767Y200905D01*
X236766Y200904D01*
X236765Y200905D01*
X234220Y200767D01*
X234219Y200766D01*
X234217Y200767D01*
X231721Y199928D01*
X231720Y199926D01*
X231718Y199927D01*
X229558Y198422D01*
X229557Y198420D01*
X229555Y198420D01*
X227939Y196478D01*
X227939Y196475D01*
X227937Y196475D01*
X226888Y194177D01*
X226888Y194175D01*
X226887Y194174D01*
X226461Y191684D01*
X226462Y191682D01*
X226461Y191681D01*
X226659Y189063D01*
X226661Y189062D01*
X226660Y189060D01*
X227543Y186586D01*
X227545Y186585D01*
X227545Y186583D01*
X229075Y184452D01*
X229077Y184451D01*
X229077Y184449D01*
X231590Y182545D01*
X231592Y182545D01*
X231593Y182543D01*
X234598Y181580D01*
X234600Y181581D01*
X234602Y181579D01*
X236756Y181541D01*
X236756Y181542D01*
G37*
G36*
X256420Y181538D02*
X256420Y181538D01*
X256421Y181538D01*
X258856Y181832D01*
X258857Y181834D01*
X258859Y181833D01*
X261128Y182742D01*
X261129Y182744D01*
X261131Y182744D01*
X263070Y184238D01*
X263071Y184240D01*
X263072Y184240D01*
X263578Y184842D01*
X263578Y184857D01*
X262310Y186234D01*
X261043Y187498D01*
X261027Y187499D01*
X260454Y187035D01*
X258632Y185840D01*
X256511Y185370D01*
X254282Y185632D01*
X252421Y186887D01*
X251076Y188880D01*
X250670Y191253D01*
X251012Y193384D01*
X252066Y195265D01*
X253771Y196574D01*
X256086Y197127D01*
X258415Y196638D01*
X260449Y195378D01*
X260993Y195099D01*
X260996Y195100D01*
X260997Y195099D01*
X261000Y195099D01*
X261003Y195102D01*
X261004Y195102D01*
X261008Y195102D01*
X262147Y196421D01*
X262147Y196422D01*
X262149Y196423D01*
X263195Y198359D01*
X263192Y198374D01*
X261307Y199734D01*
X261305Y199734D01*
X261304Y199736D01*
X259147Y200610D01*
X259145Y200609D01*
X259144Y200610D01*
X256612Y200905D01*
X256611Y200904D01*
X256610Y200905D01*
X254066Y200767D01*
X254065Y200766D01*
X254063Y200767D01*
X251506Y199880D01*
X251505Y199878D01*
X251503Y199879D01*
X249291Y198320D01*
X249291Y198318D01*
X249289Y198318D01*
X247615Y196192D01*
X247615Y196190D01*
X247613Y196190D01*
X246573Y193690D01*
X246574Y193688D01*
X246572Y193687D01*
X246329Y191200D01*
X246330Y191199D01*
X246329Y191198D01*
X246576Y188711D01*
X246577Y188709D01*
X246576Y188707D01*
X247687Y186080D01*
X247689Y186079D01*
X247689Y186077D01*
X249510Y183878D01*
X249512Y183878D01*
X249513Y183876D01*
X251910Y182336D01*
X251912Y182337D01*
X251913Y182335D01*
X254656Y181545D01*
X254658Y181546D01*
X254659Y181544D01*
X256419Y181538D01*
X256420Y181538D01*
G37*
%LPC*%
G36*
X204529Y185508D02*
X204529Y185508D01*
X203713Y185962D01*
X201941Y186996D01*
X201306Y188091D01*
X200459Y189555D01*
X200261Y191311D01*
X200497Y193064D01*
X201606Y195159D01*
X203477Y196596D01*
X205792Y197088D01*
X207878Y196753D01*
X209659Y195619D01*
X211173Y193396D01*
X211550Y190979D01*
X211001Y188599D01*
X210625Y188092D01*
X209544Y186641D01*
X207386Y185508D01*
X204529Y185508D01*
G37*
%LPD*%
G36*
X191988Y181811D02*
X191988Y181811D01*
X191987Y181811D01*
X191988Y181812D01*
X191988Y200589D01*
X191977Y200601D01*
X191977Y200600D01*
X191976Y200601D01*
X187921Y200601D01*
X187909Y200590D01*
X187910Y200590D01*
X187909Y200589D01*
X187909Y181812D01*
X187919Y181800D01*
X187920Y181801D01*
X187921Y181800D01*
X191976Y181800D01*
X191988Y181811D01*
G37*
G36*
X223358Y181811D02*
X223358Y181811D01*
X223357Y181811D01*
X223358Y181812D01*
X223358Y186078D01*
X223348Y186090D01*
X223347Y186089D01*
X223346Y186090D01*
X218971Y186090D01*
X218959Y186080D01*
X218960Y186079D01*
X218959Y186078D01*
X218959Y181812D01*
X218970Y181800D01*
X218971Y181801D01*
X218971Y181800D01*
X223346Y181800D01*
X223358Y181811D01*
G37*
D10*
X300481Y282194D02*
X294380Y282194D01*
X292854Y283719D01*
X292854Y286770D01*
X294380Y288295D01*
X300481Y288295D01*
X302006Y286770D01*
X302006Y283719D01*
X300481Y282194D01*
X298955Y285245D02*
X302006Y288295D01*
X300481Y291549D02*
X295905Y291549D01*
X300481Y291549D02*
X302006Y293074D01*
X300481Y294600D01*
X302006Y296125D01*
X300481Y297650D01*
X295905Y297650D01*
X295905Y300904D02*
X295905Y302430D01*
X302006Y302430D01*
X302006Y303955D02*
X302006Y300904D01*
X292854Y302430D02*
X291329Y302430D01*
X295905Y307141D02*
X295905Y308666D01*
X302006Y308666D01*
X302006Y307141D02*
X302006Y310192D01*
X292854Y308666D02*
X291329Y308666D01*
X295905Y314903D02*
X295905Y319479D01*
X295905Y314903D02*
X297430Y313378D01*
X300481Y313378D01*
X302006Y314903D01*
X302006Y319479D01*
X69095Y317500D02*
X62993Y317500D01*
X69095Y317500D02*
X70620Y315975D01*
X70620Y312924D01*
X69095Y311399D01*
X62993Y311399D01*
X61468Y312924D01*
X61468Y315975D01*
X62993Y317500D01*
X64519Y314449D02*
X61468Y311399D01*
X62993Y308145D02*
X67569Y308145D01*
X62993Y308145D02*
X61468Y306620D01*
X62993Y305094D01*
X61468Y303569D01*
X62993Y302044D01*
X67569Y302044D01*
X67569Y298790D02*
X67569Y297264D01*
X61468Y297264D01*
X61468Y295739D02*
X61468Y298790D01*
X70620Y297264D02*
X72145Y297264D01*
X67569Y292553D02*
X67569Y291028D01*
X61468Y291028D01*
X61468Y292553D02*
X61468Y289502D01*
X70620Y291028D02*
X72145Y291028D01*
X67569Y284791D02*
X67569Y280215D01*
X67569Y284791D02*
X66044Y286316D01*
X62993Y286316D01*
X61468Y284791D01*
X61468Y280215D01*
X147073Y416047D02*
X148598Y417572D01*
X148598Y420623D01*
X147073Y422148D01*
X145547Y422148D01*
X144022Y420623D01*
X144022Y417572D01*
X142497Y416047D01*
X140971Y416047D01*
X139446Y417572D01*
X139446Y420623D01*
X140971Y422148D01*
X148598Y408217D02*
X147073Y406692D01*
X148598Y408217D02*
X148598Y411268D01*
X147073Y412793D01*
X140971Y412793D01*
X139446Y411268D01*
X139446Y408217D01*
X140971Y406692D01*
X139446Y403438D02*
X148598Y403438D01*
X139446Y403438D02*
X139446Y397336D01*
X173997Y416047D02*
X175522Y417572D01*
X175522Y420623D01*
X173997Y422148D01*
X172471Y422148D01*
X170946Y420623D01*
X170946Y417572D01*
X169421Y416047D01*
X167895Y416047D01*
X166370Y417572D01*
X166370Y420623D01*
X167895Y422148D01*
X166370Y412793D02*
X175522Y412793D01*
X166370Y412793D02*
X166370Y408217D01*
X167895Y406692D01*
X173997Y406692D01*
X175522Y408217D01*
X175522Y412793D01*
X172471Y403438D02*
X166370Y403438D01*
X172471Y403438D02*
X175522Y400387D01*
X172471Y397336D01*
X166370Y397336D01*
X170946Y397336D02*
X170946Y403438D01*
X198127Y422148D02*
X199652Y420623D01*
X199652Y417572D01*
X198127Y416047D01*
X196601Y416047D01*
X195076Y417572D01*
X195076Y419097D01*
X195076Y417572D02*
X193551Y416047D01*
X192025Y416047D01*
X190500Y417572D01*
X190500Y420623D01*
X192025Y422148D01*
X193551Y412793D02*
X199652Y412793D01*
X193551Y412793D02*
X190500Y409742D01*
X193551Y406692D01*
X199652Y406692D01*
X198127Y403438D02*
X199652Y401912D01*
X199652Y398862D01*
X198127Y397336D01*
X196601Y397336D01*
X195076Y398862D01*
X195076Y400387D01*
X195076Y398862D02*
X193551Y397336D01*
X192025Y397336D01*
X190500Y398862D01*
X190500Y401912D01*
X192025Y403438D01*
X224035Y416047D02*
X225560Y417572D01*
X225560Y420623D01*
X224035Y422148D01*
X217933Y422148D01*
X216408Y420623D01*
X216408Y417572D01*
X217933Y416047D01*
X220984Y416047D01*
X220984Y419097D01*
X216408Y412793D02*
X225560Y412793D01*
X216408Y406692D01*
X225560Y406692D01*
X225560Y403438D02*
X216408Y403438D01*
X216408Y398862D01*
X217933Y397336D01*
X224035Y397336D01*
X225560Y398862D01*
X225560Y403438D01*
X260350Y401575D02*
X261875Y400050D01*
X263401Y400050D01*
X264926Y401575D01*
X264926Y409202D01*
X263401Y409202D02*
X266451Y409202D01*
X269705Y409202D02*
X269705Y400050D01*
X269705Y409202D02*
X274281Y409202D01*
X275806Y407677D01*
X275806Y404626D01*
X274281Y403101D01*
X269705Y403101D01*
X279060Y406151D02*
X282111Y409202D01*
X282111Y400050D01*
X279060Y400050D02*
X285162Y400050D01*
X327664Y141486D02*
X329189Y139961D01*
X327664Y141486D02*
X324613Y141486D01*
X323088Y139961D01*
X323088Y138435D01*
X324613Y136910D01*
X327664Y136910D01*
X329189Y135385D01*
X329189Y133859D01*
X327664Y132334D01*
X324613Y132334D01*
X323088Y133859D01*
X332443Y132334D02*
X332443Y138435D01*
X335494Y141486D01*
X338544Y138435D01*
X338544Y132334D01*
X338544Y136910D02*
X332443Y136910D01*
X341798Y133859D02*
X341798Y139961D01*
X343324Y141486D01*
X346374Y141486D01*
X347900Y139961D01*
X347900Y133859D01*
X346374Y132334D01*
X343324Y132334D01*
X341798Y133859D01*
X347900Y139961D01*
X69347Y37854D02*
X63246Y37854D01*
X69347Y37854D02*
X69347Y36329D01*
X63246Y30227D01*
X63246Y28702D01*
X69347Y28702D01*
X72601Y34803D02*
X74126Y34803D01*
X74126Y28702D01*
X72601Y28702D02*
X75652Y28702D01*
X74126Y37854D02*
X74126Y39379D01*
X80363Y28702D02*
X83414Y28702D01*
X84939Y30227D01*
X84939Y33278D01*
X83414Y34803D01*
X80363Y34803D01*
X78838Y33278D01*
X78838Y30227D01*
X80363Y28702D01*
X97548Y30227D02*
X97548Y36329D01*
X99074Y37854D01*
X102124Y37854D01*
X103650Y36329D01*
X103650Y30227D01*
X102124Y28702D01*
X99074Y28702D01*
X97548Y30227D01*
X100599Y31753D02*
X103650Y28702D01*
X106904Y30227D02*
X106904Y34803D01*
X106904Y30227D02*
X108429Y28702D01*
X109954Y30227D01*
X111479Y28702D01*
X113005Y30227D01*
X113005Y34803D01*
X116259Y34803D02*
X117784Y34803D01*
X117784Y28702D01*
X116259Y28702D02*
X119309Y28702D01*
X117784Y37854D02*
X117784Y39379D01*
X122496Y34803D02*
X124021Y34803D01*
X124021Y28702D01*
X122496Y28702D02*
X125546Y28702D01*
X124021Y37854D02*
X124021Y39379D01*
X130258Y34803D02*
X134833Y34803D01*
X130258Y34803D02*
X128732Y33278D01*
X128732Y30227D01*
X130258Y28702D01*
X134833Y28702D01*
X147443Y34803D02*
X150493Y37854D01*
X150493Y28702D01*
X147443Y28702D02*
X153544Y28702D01*
X156798Y28702D02*
X156798Y30227D01*
X158323Y30227D01*
X158323Y28702D01*
X156798Y28702D01*
X161475Y37854D02*
X167577Y37854D01*
X161475Y37854D02*
X161475Y33278D01*
X164526Y34803D01*
X166051Y34803D01*
X167577Y33278D01*
X167577Y30227D01*
X166051Y28702D01*
X163001Y28702D01*
X161475Y30227D01*
X170831Y34803D02*
X172356Y34803D01*
X172356Y28702D01*
X170831Y28702D02*
X173881Y28702D01*
X172356Y37854D02*
X172356Y39379D01*
X177067Y34803D02*
X177067Y28702D01*
X177067Y34803D02*
X181643Y34803D01*
X183169Y33278D01*
X183169Y28702D01*
X186423Y28702D02*
X186423Y30227D01*
X187948Y30227D01*
X187948Y28702D01*
X186423Y28702D01*
X201981Y37854D02*
X205031Y37854D01*
X201981Y37854D02*
X200455Y36329D01*
X200455Y30227D01*
X201981Y28702D01*
X205031Y28702D01*
X206557Y30227D01*
X206557Y36329D01*
X205031Y37854D01*
X209811Y37854D02*
X209811Y28702D01*
X215912Y28702D01*
X219166Y37854D02*
X225267Y37854D01*
X219166Y37854D02*
X219166Y28702D01*
X225267Y28702D01*
X222216Y33278D02*
X219166Y33278D01*
X228521Y37854D02*
X228521Y28702D01*
X233097Y28702D01*
X234622Y30227D01*
X234622Y36329D01*
X233097Y37854D01*
X228521Y37854D01*
X247231Y37854D02*
X247231Y28702D01*
X251807Y28702D01*
X253333Y30227D01*
X253333Y36329D01*
X251807Y37854D01*
X247231Y37854D01*
X256587Y34803D02*
X258112Y34803D01*
X258112Y28702D01*
X256587Y28702D02*
X259637Y28702D01*
X258112Y37854D02*
X258112Y39379D01*
X262823Y28702D02*
X267399Y28702D01*
X268924Y30227D01*
X267399Y31753D01*
X264349Y31753D01*
X262823Y33278D01*
X264349Y34803D01*
X268924Y34803D01*
X272178Y34803D02*
X272178Y25651D01*
X272178Y34803D02*
X276754Y34803D01*
X278280Y33278D01*
X278280Y30227D01*
X276754Y28702D01*
X272178Y28702D01*
X281534Y37854D02*
X283059Y37854D01*
X283059Y28702D01*
X281534Y28702D02*
X284584Y28702D01*
X289296Y34803D02*
X292346Y34803D01*
X293872Y33278D01*
X293872Y28702D01*
X289296Y28702D01*
X287770Y30227D01*
X289296Y31753D01*
X293872Y31753D01*
X297126Y30227D02*
X297126Y34803D01*
X297126Y30227D02*
X298651Y28702D01*
X303227Y28702D01*
X303227Y27177D02*
X303227Y34803D01*
X303227Y27177D02*
X301702Y25651D01*
X300176Y25651D01*
X66297Y13462D02*
X63246Y13462D01*
X64771Y13462D02*
X64771Y22614D01*
X63246Y22614D02*
X66297Y22614D01*
X69483Y13462D02*
X75584Y13462D01*
X69483Y13462D02*
X75584Y19563D01*
X75584Y21089D01*
X74059Y22614D01*
X71008Y22614D01*
X69483Y21089D01*
X83414Y22614D02*
X84939Y21089D01*
X83414Y22614D02*
X80363Y22614D01*
X78838Y21089D01*
X78838Y14987D01*
X80363Y13462D01*
X83414Y13462D01*
X84939Y14987D01*
X88193Y10411D02*
X91244Y13462D01*
X91244Y14987D01*
X89718Y14987D01*
X89718Y13462D01*
X91244Y13462D01*
X103785Y19563D02*
X106836Y22614D01*
X106836Y13462D01*
X109886Y13462D02*
X103785Y13462D01*
X113140Y13462D02*
X119242Y13462D01*
X119242Y19563D02*
X113140Y13462D01*
X119242Y19563D02*
X119242Y21089D01*
X117716Y22614D01*
X114666Y22614D01*
X113140Y21089D01*
X122496Y21089D02*
X124021Y22614D01*
X127071Y22614D01*
X128597Y21089D01*
X128597Y19563D01*
X127071Y18038D01*
X128597Y16513D01*
X128597Y14987D01*
X127071Y13462D01*
X124021Y13462D01*
X122496Y14987D01*
X122496Y16513D01*
X124021Y18038D01*
X122496Y19563D01*
X122496Y21089D01*
X124021Y18038D02*
X127071Y18038D01*
X131851Y21089D02*
X137952Y14987D01*
X131851Y14987D02*
X137952Y21089D01*
X137952Y18038D02*
X131851Y18038D01*
X134901Y14987D02*
X134901Y21089D01*
X141206Y19563D02*
X144256Y22614D01*
X144256Y13462D01*
X141206Y13462D02*
X147307Y13462D01*
X150561Y13462D02*
X156662Y13462D01*
X150561Y13462D02*
X156662Y19563D01*
X156662Y21089D01*
X155137Y22614D01*
X152086Y22614D01*
X150561Y21089D01*
X159916Y21089D02*
X161442Y22614D01*
X164492Y22614D01*
X166017Y21089D01*
X166017Y19563D01*
X164492Y18038D01*
X166017Y16513D01*
X166017Y14987D01*
X164492Y13462D01*
X161442Y13462D01*
X159916Y14987D01*
X159916Y16513D01*
X161442Y18038D01*
X159916Y19563D01*
X159916Y21089D01*
X161442Y18038D02*
X164492Y18038D01*
D11*
X273304Y76200D02*
X301244Y76200D01*
X273304Y76200D02*
X273304Y88900D01*
X301244Y88900D01*
X301244Y76200D01*
X255778Y143510D02*
X255778Y171450D01*
X255778Y143510D02*
X243078Y143510D01*
X243078Y171450D01*
X255778Y171450D01*
X240792Y171450D02*
X240792Y143510D01*
X228092Y143510D01*
X228092Y171450D01*
X240792Y171450D01*
X221488Y171450D02*
X221488Y143510D01*
X208788Y143510D01*
X208788Y171450D01*
X221488Y171450D01*
X178562Y171450D02*
X178562Y143510D01*
X178562Y171450D02*
X191262Y171450D01*
X191262Y143510D01*
X178562Y143510D01*
X109474Y187706D02*
X109474Y205486D01*
X109474Y187706D02*
X76454Y187706D01*
X76454Y205486D01*
X109474Y205486D01*
X32004Y93726D02*
X32004Y75946D01*
X32004Y93726D02*
X65024Y93726D01*
X65024Y75946D01*
X32004Y75946D01*
D12*
X48268Y103744D02*
X60768Y110744D01*
X48268Y103744D02*
X48268Y117744D01*
X60768Y110744D01*
D13*
X61268Y110744D03*
D14*
X308386Y275000D02*
X308388Y275075D01*
X308394Y275149D01*
X308404Y275223D01*
X308417Y275296D01*
X308435Y275369D01*
X308456Y275440D01*
X308481Y275511D01*
X308510Y275580D01*
X308543Y275647D01*
X308579Y275712D01*
X308618Y275776D01*
X308660Y275837D01*
X308706Y275896D01*
X308755Y275953D01*
X308807Y276006D01*
X308861Y276057D01*
X308918Y276106D01*
X308978Y276150D01*
X309040Y276192D01*
X309104Y276231D01*
X309170Y276266D01*
X309237Y276297D01*
X309307Y276325D01*
X309377Y276349D01*
X309449Y276370D01*
X309522Y276386D01*
X309595Y276399D01*
X309670Y276408D01*
X309744Y276413D01*
X309819Y276414D01*
X309893Y276411D01*
X309968Y276404D01*
X310041Y276393D01*
X310115Y276379D01*
X310187Y276360D01*
X310258Y276338D01*
X310328Y276312D01*
X310397Y276282D01*
X310463Y276249D01*
X310528Y276212D01*
X310591Y276172D01*
X310652Y276128D01*
X310710Y276082D01*
X310766Y276032D01*
X310819Y275980D01*
X310870Y275925D01*
X310917Y275867D01*
X310961Y275807D01*
X311002Y275744D01*
X311040Y275680D01*
X311074Y275614D01*
X311105Y275545D01*
X311132Y275476D01*
X311155Y275405D01*
X311174Y275333D01*
X311190Y275260D01*
X311202Y275186D01*
X311210Y275112D01*
X311214Y275037D01*
X311214Y274963D01*
X311210Y274888D01*
X311202Y274814D01*
X311190Y274740D01*
X311174Y274667D01*
X311155Y274595D01*
X311132Y274524D01*
X311105Y274455D01*
X311074Y274386D01*
X311040Y274320D01*
X311002Y274256D01*
X310961Y274193D01*
X310917Y274133D01*
X310870Y274075D01*
X310819Y274020D01*
X310766Y273968D01*
X310710Y273918D01*
X310652Y273872D01*
X310591Y273828D01*
X310528Y273788D01*
X310463Y273751D01*
X310397Y273718D01*
X310328Y273688D01*
X310258Y273662D01*
X310187Y273640D01*
X310115Y273621D01*
X310041Y273607D01*
X309968Y273596D01*
X309893Y273589D01*
X309819Y273586D01*
X309744Y273587D01*
X309670Y273592D01*
X309595Y273601D01*
X309522Y273614D01*
X309449Y273630D01*
X309377Y273651D01*
X309307Y273675D01*
X309237Y273703D01*
X309170Y273734D01*
X309104Y273769D01*
X309040Y273808D01*
X308978Y273850D01*
X308918Y273894D01*
X308861Y273943D01*
X308807Y273994D01*
X308755Y274047D01*
X308706Y274104D01*
X308660Y274163D01*
X308618Y274224D01*
X308579Y274288D01*
X308543Y274353D01*
X308510Y274420D01*
X308481Y274489D01*
X308456Y274560D01*
X308435Y274631D01*
X308417Y274704D01*
X308404Y274777D01*
X308394Y274851D01*
X308388Y274925D01*
X308386Y275000D01*
D12*
X358800Y285000D02*
X358800Y315000D01*
X332800Y270000D02*
X316300Y270000D01*
X316300Y322500D02*
X316300Y330000D01*
X332800Y330000D01*
X316300Y277500D02*
X316300Y270000D01*
D14*
X53586Y325000D02*
X53588Y325075D01*
X53594Y325149D01*
X53604Y325223D01*
X53617Y325296D01*
X53635Y325369D01*
X53656Y325440D01*
X53681Y325511D01*
X53710Y325580D01*
X53743Y325647D01*
X53779Y325712D01*
X53818Y325776D01*
X53860Y325837D01*
X53906Y325896D01*
X53955Y325953D01*
X54007Y326006D01*
X54061Y326057D01*
X54118Y326106D01*
X54178Y326150D01*
X54240Y326192D01*
X54304Y326231D01*
X54370Y326266D01*
X54437Y326297D01*
X54507Y326325D01*
X54577Y326349D01*
X54649Y326370D01*
X54722Y326386D01*
X54795Y326399D01*
X54870Y326408D01*
X54944Y326413D01*
X55019Y326414D01*
X55093Y326411D01*
X55168Y326404D01*
X55241Y326393D01*
X55315Y326379D01*
X55387Y326360D01*
X55458Y326338D01*
X55528Y326312D01*
X55597Y326282D01*
X55663Y326249D01*
X55728Y326212D01*
X55791Y326172D01*
X55852Y326128D01*
X55910Y326082D01*
X55966Y326032D01*
X56019Y325980D01*
X56070Y325925D01*
X56117Y325867D01*
X56161Y325807D01*
X56202Y325744D01*
X56240Y325680D01*
X56274Y325614D01*
X56305Y325545D01*
X56332Y325476D01*
X56355Y325405D01*
X56374Y325333D01*
X56390Y325260D01*
X56402Y325186D01*
X56410Y325112D01*
X56414Y325037D01*
X56414Y324963D01*
X56410Y324888D01*
X56402Y324814D01*
X56390Y324740D01*
X56374Y324667D01*
X56355Y324595D01*
X56332Y324524D01*
X56305Y324455D01*
X56274Y324386D01*
X56240Y324320D01*
X56202Y324256D01*
X56161Y324193D01*
X56117Y324133D01*
X56070Y324075D01*
X56019Y324020D01*
X55966Y323968D01*
X55910Y323918D01*
X55852Y323872D01*
X55791Y323828D01*
X55728Y323788D01*
X55663Y323751D01*
X55597Y323718D01*
X55528Y323688D01*
X55458Y323662D01*
X55387Y323640D01*
X55315Y323621D01*
X55241Y323607D01*
X55168Y323596D01*
X55093Y323589D01*
X55019Y323586D01*
X54944Y323587D01*
X54870Y323592D01*
X54795Y323601D01*
X54722Y323614D01*
X54649Y323630D01*
X54577Y323651D01*
X54507Y323675D01*
X54437Y323703D01*
X54370Y323734D01*
X54304Y323769D01*
X54240Y323808D01*
X54178Y323850D01*
X54118Y323894D01*
X54061Y323943D01*
X54007Y323994D01*
X53955Y324047D01*
X53906Y324104D01*
X53860Y324163D01*
X53818Y324224D01*
X53779Y324288D01*
X53743Y324353D01*
X53710Y324420D01*
X53681Y324489D01*
X53656Y324560D01*
X53635Y324631D01*
X53617Y324704D01*
X53604Y324777D01*
X53594Y324851D01*
X53588Y324925D01*
X53586Y325000D01*
D12*
X6000Y315000D02*
X6000Y285000D01*
X32000Y330000D02*
X48500Y330000D01*
X48500Y277500D02*
X48500Y270000D01*
X32000Y270000D01*
X48500Y322500D02*
X48500Y330000D01*
D15*
X260096Y375158D02*
X285496Y375158D01*
X288036Y392938D02*
X288034Y393038D01*
X288028Y393137D01*
X288018Y393237D01*
X288005Y393335D01*
X287987Y393434D01*
X287966Y393531D01*
X287941Y393627D01*
X287912Y393723D01*
X287879Y393817D01*
X287843Y393910D01*
X287803Y394001D01*
X287759Y394091D01*
X287712Y394179D01*
X287662Y394265D01*
X287608Y394349D01*
X287551Y394431D01*
X287491Y394510D01*
X287427Y394588D01*
X287361Y394662D01*
X287292Y394734D01*
X287220Y394803D01*
X287146Y394869D01*
X287068Y394933D01*
X286989Y394993D01*
X286907Y395050D01*
X286823Y395104D01*
X286737Y395154D01*
X286649Y395201D01*
X286559Y395245D01*
X286468Y395285D01*
X286375Y395321D01*
X286281Y395354D01*
X286185Y395383D01*
X286089Y395408D01*
X285992Y395429D01*
X285893Y395447D01*
X285795Y395460D01*
X285695Y395470D01*
X285596Y395476D01*
X285496Y395478D01*
X260096Y395478D02*
X259996Y395476D01*
X259897Y395470D01*
X259797Y395460D01*
X259699Y395447D01*
X259600Y395429D01*
X259503Y395408D01*
X259407Y395383D01*
X259311Y395354D01*
X259217Y395321D01*
X259124Y395285D01*
X259033Y395245D01*
X258943Y395201D01*
X258855Y395154D01*
X258769Y395104D01*
X258685Y395050D01*
X258603Y394993D01*
X258524Y394933D01*
X258446Y394869D01*
X258372Y394803D01*
X258300Y394734D01*
X258231Y394662D01*
X258165Y394588D01*
X258101Y394510D01*
X258041Y394431D01*
X257984Y394349D01*
X257930Y394265D01*
X257880Y394179D01*
X257833Y394091D01*
X257789Y394001D01*
X257749Y393910D01*
X257713Y393817D01*
X257680Y393723D01*
X257651Y393627D01*
X257626Y393531D01*
X257605Y393434D01*
X257587Y393335D01*
X257574Y393237D01*
X257564Y393137D01*
X257558Y393038D01*
X257556Y392938D01*
X257556Y377698D02*
X257558Y377598D01*
X257564Y377499D01*
X257574Y377399D01*
X257587Y377301D01*
X257605Y377202D01*
X257626Y377105D01*
X257651Y377009D01*
X257680Y376913D01*
X257713Y376819D01*
X257749Y376726D01*
X257789Y376635D01*
X257833Y376545D01*
X257880Y376457D01*
X257930Y376371D01*
X257984Y376287D01*
X258041Y376205D01*
X258101Y376126D01*
X258165Y376048D01*
X258231Y375974D01*
X258300Y375902D01*
X258372Y375833D01*
X258446Y375767D01*
X258524Y375703D01*
X258603Y375643D01*
X258685Y375586D01*
X258769Y375532D01*
X258855Y375482D01*
X258943Y375435D01*
X259033Y375391D01*
X259124Y375351D01*
X259217Y375315D01*
X259311Y375282D01*
X259407Y375253D01*
X259503Y375228D01*
X259600Y375207D01*
X259699Y375189D01*
X259797Y375176D01*
X259897Y375166D01*
X259996Y375160D01*
X260096Y375158D01*
X285496Y375158D02*
X285596Y375160D01*
X285695Y375166D01*
X285795Y375176D01*
X285893Y375189D01*
X285992Y375207D01*
X286089Y375228D01*
X286185Y375253D01*
X286281Y375282D01*
X286375Y375315D01*
X286468Y375351D01*
X286559Y375391D01*
X286649Y375435D01*
X286737Y375482D01*
X286823Y375532D01*
X286907Y375586D01*
X286989Y375643D01*
X287068Y375703D01*
X287146Y375767D01*
X287220Y375833D01*
X287292Y375902D01*
X287361Y375974D01*
X287427Y376048D01*
X287491Y376126D01*
X287551Y376205D01*
X287608Y376287D01*
X287662Y376371D01*
X287712Y376457D01*
X287759Y376545D01*
X287803Y376635D01*
X287843Y376726D01*
X287879Y376819D01*
X287912Y376913D01*
X287941Y377009D01*
X287966Y377105D01*
X287987Y377202D01*
X288005Y377301D01*
X288018Y377399D01*
X288028Y377499D01*
X288034Y377598D01*
X288036Y377698D01*
X288036Y392938D01*
X257556Y392938D02*
X257556Y377698D01*
X260096Y395478D02*
X285496Y395478D01*
X326136Y107442D02*
X343408Y107442D01*
X345948Y125222D02*
X345946Y125322D01*
X345940Y125421D01*
X345930Y125521D01*
X345917Y125619D01*
X345899Y125718D01*
X345878Y125815D01*
X345853Y125911D01*
X345824Y126007D01*
X345791Y126101D01*
X345755Y126194D01*
X345715Y126285D01*
X345671Y126375D01*
X345624Y126463D01*
X345574Y126549D01*
X345520Y126633D01*
X345463Y126715D01*
X345403Y126794D01*
X345339Y126872D01*
X345273Y126946D01*
X345204Y127018D01*
X345132Y127087D01*
X345058Y127153D01*
X344980Y127217D01*
X344901Y127277D01*
X344819Y127334D01*
X344735Y127388D01*
X344649Y127438D01*
X344561Y127485D01*
X344471Y127529D01*
X344380Y127569D01*
X344287Y127605D01*
X344193Y127638D01*
X344097Y127667D01*
X344001Y127692D01*
X343904Y127713D01*
X343805Y127731D01*
X343707Y127744D01*
X343607Y127754D01*
X343508Y127760D01*
X343408Y127762D01*
X326136Y127762D02*
X326036Y127760D01*
X325937Y127754D01*
X325837Y127744D01*
X325739Y127731D01*
X325640Y127713D01*
X325543Y127692D01*
X325447Y127667D01*
X325351Y127638D01*
X325257Y127605D01*
X325164Y127569D01*
X325073Y127529D01*
X324983Y127485D01*
X324895Y127438D01*
X324809Y127388D01*
X324725Y127334D01*
X324643Y127277D01*
X324564Y127217D01*
X324486Y127153D01*
X324412Y127087D01*
X324340Y127018D01*
X324271Y126946D01*
X324205Y126872D01*
X324141Y126794D01*
X324081Y126715D01*
X324024Y126633D01*
X323970Y126549D01*
X323920Y126463D01*
X323873Y126375D01*
X323829Y126285D01*
X323789Y126194D01*
X323753Y126101D01*
X323720Y126007D01*
X323691Y125911D01*
X323666Y125815D01*
X323645Y125718D01*
X323627Y125619D01*
X323614Y125521D01*
X323604Y125421D01*
X323598Y125322D01*
X323596Y125222D01*
X323596Y109982D02*
X323598Y109882D01*
X323604Y109783D01*
X323614Y109683D01*
X323627Y109585D01*
X323645Y109486D01*
X323666Y109389D01*
X323691Y109293D01*
X323720Y109197D01*
X323753Y109103D01*
X323789Y109010D01*
X323829Y108919D01*
X323873Y108829D01*
X323920Y108741D01*
X323970Y108655D01*
X324024Y108571D01*
X324081Y108489D01*
X324141Y108410D01*
X324205Y108332D01*
X324271Y108258D01*
X324340Y108186D01*
X324412Y108117D01*
X324486Y108051D01*
X324564Y107987D01*
X324643Y107927D01*
X324725Y107870D01*
X324809Y107816D01*
X324895Y107766D01*
X324983Y107719D01*
X325073Y107675D01*
X325164Y107635D01*
X325257Y107599D01*
X325351Y107566D01*
X325447Y107537D01*
X325543Y107512D01*
X325640Y107491D01*
X325739Y107473D01*
X325837Y107460D01*
X325937Y107450D01*
X326036Y107444D01*
X326136Y107442D01*
X343408Y107442D02*
X343508Y107444D01*
X343607Y107450D01*
X343707Y107460D01*
X343805Y107473D01*
X343904Y107491D01*
X344001Y107512D01*
X344097Y107537D01*
X344193Y107566D01*
X344287Y107599D01*
X344380Y107635D01*
X344471Y107675D01*
X344561Y107719D01*
X344649Y107766D01*
X344735Y107816D01*
X344819Y107870D01*
X344901Y107927D01*
X344980Y107987D01*
X345058Y108051D01*
X345132Y108117D01*
X345204Y108186D01*
X345273Y108258D01*
X345339Y108332D01*
X345403Y108410D01*
X345463Y108489D01*
X345520Y108571D01*
X345574Y108655D01*
X345624Y108741D01*
X345671Y108829D01*
X345715Y108919D01*
X345755Y109010D01*
X345791Y109103D01*
X345824Y109197D01*
X345853Y109293D01*
X345878Y109389D01*
X345899Y109486D01*
X345917Y109585D01*
X345930Y109683D01*
X345940Y109783D01*
X345946Y109882D01*
X345948Y109982D01*
X345948Y125222D01*
X323596Y125222D02*
X323596Y109982D01*
X326136Y127762D02*
X343408Y127762D01*
D16*
X60640Y137734D02*
X60640Y177734D01*
X20640Y177734D02*
X20640Y137734D01*
D11*
X274574Y336804D02*
X274574Y364744D01*
X287274Y364744D01*
X287274Y336804D01*
X274574Y336804D01*
X258318Y336804D02*
X258318Y364744D01*
X271018Y364744D01*
X271018Y336804D01*
X258318Y336804D01*
X206502Y171450D02*
X206502Y143510D01*
X193802Y143510D01*
X193802Y171450D01*
X206502Y171450D01*
X176276Y171450D02*
X176276Y143510D01*
X163576Y143510D01*
X163576Y171450D01*
X176276Y171450D01*
X99568Y123698D02*
X99568Y95758D01*
X86868Y95758D01*
X86868Y123698D01*
X99568Y123698D01*
X101346Y123698D02*
X101346Y95758D01*
X101346Y123698D02*
X114046Y123698D01*
X114046Y95758D01*
X101346Y95758D01*
X288544Y96012D02*
X288544Y123952D01*
X301244Y123952D01*
X301244Y96012D01*
X288544Y96012D01*
X98044Y149630D02*
X98044Y165838D01*
X79544Y149630D02*
X78596Y149630D01*
X88096Y149630D02*
X89044Y149630D01*
X70544Y149630D02*
X69596Y150578D01*
X69596Y165838D01*
X97096Y149630D02*
X98044Y149630D01*
X98044Y165838D02*
X97096Y165838D01*
X70544Y165838D02*
X69596Y165838D01*
X78596Y165838D02*
X79544Y165838D01*
X88096Y165838D02*
X89044Y165838D01*
X64770Y146304D02*
X64772Y146404D01*
X64778Y146505D01*
X64788Y146604D01*
X64802Y146704D01*
X64819Y146803D01*
X64841Y146901D01*
X64867Y146998D01*
X64896Y147094D01*
X64929Y147188D01*
X64966Y147282D01*
X65006Y147374D01*
X65050Y147464D01*
X65098Y147552D01*
X65149Y147639D01*
X65203Y147723D01*
X65261Y147805D01*
X65322Y147885D01*
X65386Y147962D01*
X65453Y148037D01*
X65523Y148109D01*
X65596Y148178D01*
X65671Y148244D01*
X65749Y148308D01*
X65829Y148368D01*
X65912Y148425D01*
X65997Y148478D01*
X66084Y148528D01*
X66173Y148575D01*
X66263Y148618D01*
X66355Y148658D01*
X66449Y148694D01*
X66544Y148726D01*
X66640Y148754D01*
X66738Y148779D01*
X66836Y148799D01*
X66935Y148816D01*
X67035Y148829D01*
X67134Y148838D01*
X67235Y148843D01*
X67335Y148844D01*
X67435Y148841D01*
X67536Y148834D01*
X67635Y148823D01*
X67735Y148808D01*
X67833Y148790D01*
X67931Y148767D01*
X68028Y148740D01*
X68123Y148710D01*
X68218Y148676D01*
X68311Y148638D01*
X68402Y148597D01*
X68492Y148552D01*
X68580Y148504D01*
X68666Y148452D01*
X68750Y148397D01*
X68831Y148338D01*
X68910Y148276D01*
X68987Y148212D01*
X69061Y148144D01*
X69132Y148073D01*
X69201Y148000D01*
X69266Y147924D01*
X69329Y147845D01*
X69388Y147764D01*
X69444Y147681D01*
X69497Y147596D01*
X69546Y147508D01*
X69592Y147419D01*
X69634Y147328D01*
X69673Y147235D01*
X69708Y147141D01*
X69739Y147046D01*
X69767Y146949D01*
X69790Y146852D01*
X69810Y146753D01*
X69826Y146654D01*
X69838Y146555D01*
X69846Y146454D01*
X69850Y146354D01*
X69850Y146254D01*
X69846Y146154D01*
X69838Y146053D01*
X69826Y145954D01*
X69810Y145855D01*
X69790Y145756D01*
X69767Y145659D01*
X69739Y145562D01*
X69708Y145467D01*
X69673Y145373D01*
X69634Y145280D01*
X69592Y145189D01*
X69546Y145100D01*
X69497Y145012D01*
X69444Y144927D01*
X69388Y144844D01*
X69329Y144763D01*
X69266Y144684D01*
X69201Y144608D01*
X69132Y144535D01*
X69061Y144464D01*
X68987Y144396D01*
X68910Y144332D01*
X68831Y144270D01*
X68750Y144211D01*
X68666Y144156D01*
X68580Y144104D01*
X68492Y144056D01*
X68402Y144011D01*
X68311Y143970D01*
X68218Y143932D01*
X68123Y143898D01*
X68028Y143868D01*
X67931Y143841D01*
X67833Y143818D01*
X67735Y143800D01*
X67635Y143785D01*
X67536Y143774D01*
X67435Y143767D01*
X67335Y143764D01*
X67235Y143765D01*
X67134Y143770D01*
X67035Y143779D01*
X66935Y143792D01*
X66836Y143809D01*
X66738Y143829D01*
X66640Y143854D01*
X66544Y143882D01*
X66449Y143914D01*
X66355Y143950D01*
X66263Y143990D01*
X66173Y144033D01*
X66084Y144080D01*
X65997Y144130D01*
X65912Y144183D01*
X65829Y144240D01*
X65749Y144300D01*
X65671Y144364D01*
X65596Y144430D01*
X65523Y144499D01*
X65453Y144571D01*
X65386Y144646D01*
X65322Y144723D01*
X65261Y144803D01*
X65203Y144885D01*
X65149Y144969D01*
X65098Y145056D01*
X65050Y145144D01*
X65006Y145234D01*
X64966Y145326D01*
X64929Y145420D01*
X64896Y145514D01*
X64867Y145610D01*
X64841Y145707D01*
X64819Y145805D01*
X64802Y145904D01*
X64788Y146004D01*
X64778Y146103D01*
X64772Y146204D01*
X64770Y146304D01*
X131600Y428700D02*
X131600Y454100D01*
X233200Y454100D01*
X233200Y428700D01*
X131600Y428700D01*
X62484Y59944D02*
X34544Y59944D01*
X34544Y72644D01*
X62484Y72644D01*
X62484Y59944D01*
D17*
X290904Y242496D03*
D18*
X296204Y242496D03*
X300404Y242496D03*
D19*
X308304Y242496D03*
X315904Y242496D03*
D18*
X320004Y242496D03*
X324204Y242496D03*
D20*
X332004Y242496D03*
D21*
X290904Y242296D03*
D22*
X296304Y242296D03*
X300504Y242296D03*
X308304Y242296D03*
D18*
X316004Y242296D03*
D22*
X319904Y242296D03*
X324304Y242296D03*
D19*
X332104Y242296D03*
D23*
X290804Y242096D03*
D22*
X296304Y242096D03*
X300504Y242096D03*
D24*
X308204Y242096D03*
D22*
X315904Y242096D03*
X319904Y242096D03*
X324304Y242096D03*
D25*
X332104Y242096D03*
X290904Y241896D03*
D22*
X296304Y241896D03*
X300504Y241896D03*
D24*
X308204Y241896D03*
D18*
X315804Y241896D03*
D22*
X319904Y241896D03*
X324304Y241896D03*
D26*
X332004Y241896D03*
D27*
X290904Y241696D03*
D22*
X296304Y241696D03*
X300704Y241696D03*
D28*
X308304Y241696D03*
D18*
X315804Y241696D03*
D22*
X319904Y241696D03*
X324304Y241696D03*
D29*
X332104Y241696D03*
D30*
X290804Y241496D03*
D22*
X296304Y241496D03*
X300704Y241496D03*
D28*
X308304Y241496D03*
D22*
X315704Y241496D03*
X319904Y241496D03*
X324304Y241496D03*
D31*
X332004Y241496D03*
D32*
X290804Y241296D03*
D24*
X296204Y241296D03*
D18*
X300804Y241296D03*
D23*
X308204Y241296D03*
D18*
X315604Y241296D03*
D22*
X319904Y241296D03*
X324304Y241296D03*
D33*
X332004Y241296D03*
D34*
X292704Y241096D03*
D22*
X300904Y241096D03*
D23*
X308204Y241096D03*
D18*
X315604Y241096D03*
D22*
X319904Y241096D03*
X324304Y241096D03*
D35*
X332104Y241096D03*
D36*
X292604Y240896D03*
D22*
X300904Y240896D03*
D37*
X308304Y240896D03*
D18*
X315604Y240896D03*
D22*
X319904Y240896D03*
X324304Y240896D03*
D38*
X332104Y240896D03*
D39*
X292504Y240696D03*
D18*
X301004Y240696D03*
D40*
X308204Y240696D03*
D18*
X315404Y240696D03*
D22*
X319904Y240696D03*
X324304Y240696D03*
D41*
X332004Y240696D03*
D39*
X292504Y240496D03*
D18*
X301004Y240496D03*
D40*
X308204Y240496D03*
D18*
X315404Y240496D03*
D22*
X319904Y240496D03*
X324304Y240496D03*
D42*
X332004Y240496D03*
D43*
X292404Y240296D03*
D22*
X301104Y240296D03*
D25*
X308304Y240296D03*
D19*
X315304Y240296D03*
D22*
X319904Y240296D03*
X324304Y240296D03*
D44*
X332104Y240296D03*
D45*
X292304Y240096D03*
D18*
X301204Y240096D03*
D25*
X308304Y240096D03*
D18*
X315204Y240096D03*
D22*
X319904Y240096D03*
X324304Y240096D03*
D46*
X332104Y240096D03*
D45*
X292304Y239896D03*
D18*
X301204Y239896D03*
D47*
X308204Y239896D03*
D18*
X315204Y239896D03*
D22*
X319904Y239896D03*
X324304Y239896D03*
D46*
X331904Y239896D03*
D45*
X292304Y239696D03*
D22*
X301304Y239696D03*
D48*
X308304Y239696D03*
D18*
X315204Y239696D03*
D22*
X319904Y239696D03*
X324304Y239696D03*
D49*
X331804Y239696D03*
D25*
X288704Y239496D03*
D26*
X295404Y239496D03*
D18*
X301404Y239496D03*
D48*
X308304Y239496D03*
D19*
X315104Y239496D03*
D22*
X319904Y239496D03*
X324304Y239496D03*
D25*
X329304Y239496D03*
D19*
X334504Y239496D03*
D40*
X288404Y239296D03*
D47*
X295604Y239296D03*
D18*
X301404Y239296D03*
D48*
X308304Y239296D03*
D18*
X315004Y239296D03*
D22*
X319904Y239296D03*
X324304Y239296D03*
D37*
X329104Y239296D03*
D50*
X334604Y239296D03*
D23*
X288204Y239096D03*
D40*
X295804Y239096D03*
D22*
X301504Y239096D03*
D26*
X308204Y239096D03*
D19*
X314904Y239096D03*
D22*
X319904Y239096D03*
X324304Y239096D03*
D23*
X328804Y239096D03*
D51*
X334604Y239096D03*
D28*
X288104Y238896D03*
D37*
X295904Y238896D03*
D18*
X301604Y238896D03*
D26*
X308204Y238896D03*
D19*
X314904Y238896D03*
D22*
X319904Y238896D03*
X324304Y238896D03*
D28*
X328704Y238896D03*
D17*
X334504Y238896D03*
D28*
X288104Y238696D03*
D23*
X296004Y238696D03*
D18*
X301604Y238696D03*
D52*
X308204Y238696D03*
D18*
X314804Y238696D03*
D22*
X319904Y238696D03*
X324304Y238696D03*
D24*
X328604Y238696D03*
D53*
X334404Y238696D03*
D24*
X288004Y238496D03*
D28*
X296104Y238496D03*
D19*
X301704Y238496D03*
D52*
X308204Y238496D03*
D19*
X314704Y238496D03*
D22*
X319904Y238496D03*
X324304Y238496D03*
X328504Y238496D03*
D24*
X287804Y238296D03*
D28*
X296104Y238296D03*
D18*
X301804Y238296D03*
D54*
X308304Y238296D03*
D19*
X314704Y238296D03*
D22*
X319904Y238296D03*
X324304Y238296D03*
D24*
X328404Y238296D03*
X287804Y238096D03*
D28*
X296104Y238096D03*
D18*
X301804Y238096D03*
D54*
X308304Y238096D03*
D19*
X314504Y238096D03*
D22*
X319904Y238096D03*
X324304Y238096D03*
D24*
X328404Y238096D03*
X287804Y237896D03*
X296204Y237896D03*
D19*
X301904Y237896D03*
D21*
X306704Y237896D03*
D55*
X309804Y237896D03*
D19*
X314504Y237896D03*
D22*
X319904Y237896D03*
X324304Y237896D03*
X328304Y237896D03*
X287704Y237696D03*
D24*
X296204Y237696D03*
D18*
X302004Y237696D03*
D21*
X306504Y237696D03*
D55*
X309804Y237696D03*
D19*
X314504Y237696D03*
D22*
X319904Y237696D03*
X324304Y237696D03*
X328304Y237696D03*
X287704Y237496D03*
D24*
X296204Y237496D03*
D18*
X302004Y237496D03*
D21*
X306504Y237496D03*
D55*
X310004Y237496D03*
X314404Y237496D03*
D22*
X319904Y237496D03*
X324304Y237496D03*
X328304Y237496D03*
X287704Y237296D03*
X296304Y237296D03*
D19*
X302104Y237296D03*
D55*
X306404Y237296D03*
X310004Y237296D03*
D19*
X314304Y237296D03*
D22*
X319904Y237296D03*
X324304Y237296D03*
X328304Y237296D03*
X287704Y237096D03*
X296304Y237096D03*
D18*
X302204Y237096D03*
D55*
X306404Y237096D03*
X310004Y237096D03*
D19*
X314304Y237096D03*
D22*
X319904Y237096D03*
X324304Y237096D03*
X328304Y237096D03*
X287704Y236896D03*
X296304Y236896D03*
D19*
X302304Y236896D03*
D21*
X306304Y236896D03*
X310104Y236896D03*
D55*
X314204Y236896D03*
D22*
X319904Y236896D03*
X324304Y236896D03*
X328304Y236896D03*
X287704Y236696D03*
X296304Y236696D03*
D19*
X302304Y236696D03*
D21*
X306304Y236696D03*
D55*
X310204Y236696D03*
D19*
X314104Y236696D03*
D22*
X319904Y236696D03*
X324304Y236696D03*
X328304Y236696D03*
X287704Y236496D03*
X296304Y236496D03*
D19*
X302304Y236496D03*
D21*
X306104Y236496D03*
D55*
X310204Y236496D03*
X314004Y236496D03*
D22*
X319904Y236496D03*
X324304Y236496D03*
X328304Y236496D03*
X287704Y236296D03*
D24*
X296204Y236296D03*
D18*
X302404Y236296D03*
D21*
X306104Y236296D03*
D55*
X310404Y236296D03*
X314004Y236296D03*
D22*
X319904Y236296D03*
X324304Y236296D03*
X328304Y236296D03*
X287704Y236096D03*
D24*
X296204Y236096D03*
D19*
X302504Y236096D03*
D21*
X306104Y236096D03*
D55*
X310404Y236096D03*
X314004Y236096D03*
D22*
X319904Y236096D03*
X324304Y236096D03*
X328304Y236096D03*
D24*
X287804Y235896D03*
X296204Y235896D03*
D19*
X302504Y235896D03*
D21*
X306104Y235896D03*
D55*
X310404Y235896D03*
D19*
X313904Y235896D03*
D22*
X319904Y235896D03*
X324304Y235896D03*
D24*
X328404Y235896D03*
X287804Y235696D03*
D28*
X296104Y235696D03*
D19*
X302704Y235696D03*
D21*
X305904Y235696D03*
D55*
X310404Y235696D03*
X313804Y235696D03*
D22*
X319904Y235696D03*
X324304Y235696D03*
D24*
X328404Y235696D03*
X287804Y235496D03*
D28*
X296104Y235496D03*
D30*
X304204Y235496D03*
X312204Y235496D03*
D22*
X319904Y235496D03*
X324304Y235496D03*
D24*
X328604Y235496D03*
D56*
X334504Y235496D03*
D24*
X288004Y235296D03*
D28*
X296104Y235296D03*
D30*
X304204Y235296D03*
D54*
X312104Y235296D03*
D22*
X319904Y235296D03*
X324304Y235296D03*
D24*
X328604Y235296D03*
D57*
X334604Y235296D03*
D28*
X288104Y235096D03*
D23*
X296004Y235096D03*
D52*
X304204Y235096D03*
X312204Y235096D03*
D22*
X319904Y235096D03*
X324304Y235096D03*
D28*
X328704Y235096D03*
D58*
X334704Y235096D03*
D28*
X288104Y234896D03*
D37*
X295904Y234896D03*
D52*
X304204Y234896D03*
X312204Y234896D03*
D22*
X319904Y234896D03*
X324304Y234896D03*
D23*
X328804Y234896D03*
D59*
X334804Y234896D03*
D23*
X288204Y234696D03*
D40*
X295804Y234696D03*
D52*
X304204Y234696D03*
D27*
X312104Y234696D03*
D22*
X319904Y234696D03*
X324304Y234696D03*
D37*
X329104Y234696D03*
D21*
X334704Y234696D03*
D37*
X288504Y234496D03*
D25*
X295704Y234496D03*
D26*
X304204Y234496D03*
D27*
X312104Y234496D03*
D22*
X319904Y234496D03*
X324304Y234496D03*
D46*
X331704Y234496D03*
D40*
X288604Y234296D03*
D48*
X295504Y234296D03*
D26*
X304204Y234296D03*
X312204Y234296D03*
D22*
X319904Y234296D03*
X324304Y234296D03*
D46*
X331904Y234296D03*
D48*
X289104Y234096D03*
D54*
X295104Y234096D03*
D48*
X304304Y234096D03*
X312104Y234096D03*
D22*
X319904Y234096D03*
X324304Y234096D03*
D60*
X332004Y234096D03*
D45*
X292304Y233896D03*
D47*
X304204Y233896D03*
D48*
X312104Y233896D03*
D22*
X319904Y233896D03*
X324304Y233896D03*
D49*
X332004Y233896D03*
D45*
X292304Y233696D03*
D47*
X304204Y233696D03*
D25*
X312104Y233696D03*
D22*
X319904Y233696D03*
X324304Y233696D03*
D44*
X332104Y233696D03*
D43*
X292404Y233496D03*
D25*
X304304Y233496D03*
X312104Y233496D03*
D22*
X319904Y233496D03*
X324304Y233496D03*
D61*
X332104Y233496D03*
D39*
X292504Y233296D03*
D25*
X304304Y233296D03*
X312104Y233296D03*
D22*
X319904Y233296D03*
X324304Y233296D03*
D38*
X332104Y233296D03*
D36*
X292604Y233096D03*
D40*
X304204Y233096D03*
D37*
X312104Y233096D03*
D22*
X319904Y233096D03*
X324304Y233096D03*
D35*
X332104Y233096D03*
D34*
X292704Y232896D03*
D37*
X304304Y232896D03*
X312104Y232896D03*
D22*
X319904Y232896D03*
X324304Y232896D03*
D62*
X332104Y232896D03*
D63*
X292804Y232696D03*
D23*
X304204Y232696D03*
D37*
X312104Y232696D03*
D22*
X319904Y232696D03*
X324304Y232696D03*
D64*
X332104Y232696D03*
D29*
X290904Y232496D03*
D24*
X296204Y232496D03*
D28*
X304304Y232496D03*
D23*
X312004Y232496D03*
D22*
X319904Y232496D03*
X324304Y232496D03*
D29*
X332104Y232496D03*
D54*
X290904Y232296D03*
D22*
X296304Y232296D03*
D28*
X304304Y232296D03*
X312104Y232296D03*
D22*
X319904Y232296D03*
X324304Y232296D03*
D54*
X332104Y232296D03*
D27*
X290904Y232096D03*
D22*
X296304Y232096D03*
D28*
X304304Y232096D03*
D24*
X312004Y232096D03*
D22*
X319904Y232096D03*
X324304Y232096D03*
D47*
X332004Y232096D03*
D25*
X290904Y231896D03*
D22*
X296304Y231896D03*
X304304Y231896D03*
D24*
X312004Y231896D03*
D22*
X319904Y231896D03*
X324304Y231896D03*
X332104Y231896D03*
D28*
X290904Y231696D03*
D22*
X296304Y231696D03*
X304304Y231696D03*
X312104Y231696D03*
D18*
X320004Y231696D03*
D22*
X324304Y231696D03*
D59*
X332004Y231696D03*
D21*
X290904Y231496D03*
D22*
X296304Y231496D03*
D57*
X291004Y231296D03*
D22*
X296304Y231296D03*
X296304Y231096D03*
X296304Y230896D03*
X296304Y230696D03*
X296304Y230496D03*
X296304Y230296D03*
X296304Y230096D03*
X296304Y229896D03*
X296304Y229696D03*
X296304Y229496D03*
X296304Y229296D03*
X296304Y229096D03*
D23*
X312004Y229096D03*
D22*
X296304Y228896D03*
D65*
X312004Y228896D03*
D22*
X296304Y228696D03*
D60*
X312004Y228696D03*
D22*
X296304Y228496D03*
D66*
X312004Y228496D03*
D22*
X296304Y228296D03*
D67*
X312004Y228296D03*
D22*
X296304Y228096D03*
D68*
X312004Y228096D03*
D22*
X296304Y227896D03*
D69*
X312104Y227896D03*
D18*
X296204Y227696D03*
D70*
X312004Y227696D03*
D71*
X312004Y227496D03*
D72*
X312004Y227296D03*
D73*
X312004Y227096D03*
D74*
X312004Y226896D03*
D75*
X312104Y226696D03*
D76*
X312004Y226496D03*
D77*
X312004Y226296D03*
D78*
X312104Y226096D03*
D79*
X312104Y225896D03*
D80*
X312004Y225696D03*
D81*
X312104Y225496D03*
D82*
X312104Y225296D03*
D83*
X312104Y225096D03*
D84*
X312104Y224896D03*
D85*
X312104Y224696D03*
D86*
X312004Y224496D03*
D87*
X312104Y224296D03*
D88*
X312104Y224096D03*
D89*
X312004Y223896D03*
D90*
X312104Y223696D03*
D91*
X312104Y223496D03*
D92*
X312104Y223296D03*
D93*
X312004Y223096D03*
D94*
X312004Y222896D03*
D95*
X312004Y222696D03*
D96*
X312004Y222496D03*
D97*
X312004Y222296D03*
D98*
X312004Y222096D03*
D99*
X312104Y221896D03*
D100*
X312004Y221696D03*
D101*
X312004Y221496D03*
D102*
X312004Y221296D03*
D103*
X312004Y221096D03*
D104*
X312004Y220896D03*
D105*
X312004Y220696D03*
D106*
X312004Y220496D03*
D107*
X312104Y220296D03*
D108*
X312104Y220096D03*
D109*
X312004Y219896D03*
D110*
X312004Y219696D03*
D111*
X312004Y219496D03*
D112*
X312104Y219296D03*
D113*
X312004Y219096D03*
D114*
X312004Y218896D03*
D115*
X312004Y218696D03*
D116*
X312104Y218496D03*
D117*
X312004Y218296D03*
D118*
X312104Y218096D03*
D119*
X312104Y217896D03*
D120*
X312004Y217696D03*
D121*
X312104Y217496D03*
D122*
X312104Y217296D03*
D123*
X312004Y217096D03*
D124*
X312104Y216896D03*
D125*
X312004Y216696D03*
D126*
X312104Y216496D03*
D127*
X312004Y216296D03*
D128*
X312004Y216096D03*
X312004Y215896D03*
D129*
X312104Y215696D03*
D130*
X312104Y215496D03*
D131*
X312004Y215296D03*
X312004Y215096D03*
D132*
X312004Y214896D03*
D133*
X312104Y214696D03*
X312104Y214496D03*
D134*
X312004Y214296D03*
D135*
X312104Y214096D03*
D136*
X312004Y213896D03*
D137*
X312104Y213696D03*
X312104Y213496D03*
D138*
X312004Y213296D03*
D139*
X312104Y213096D03*
D140*
X312004Y212896D03*
X312004Y212696D03*
D141*
X312104Y212496D03*
D142*
X312004Y212296D03*
D143*
X312104Y212096D03*
X312104Y211896D03*
D144*
X312004Y211696D03*
X312004Y211496D03*
D54*
X291304Y211296D03*
D29*
X332704Y211296D03*
D54*
X291104Y211096D03*
D30*
X332804Y211096D03*
D52*
X291004Y210896D03*
D30*
X332804Y210896D03*
D52*
X291004Y210696D03*
D30*
X332804Y210696D03*
D52*
X291004Y210496D03*
D29*
X332904Y210496D03*
D54*
X290904Y210296D03*
D29*
X332904Y210296D03*
D54*
X290904Y210096D03*
D29*
X332904Y210096D03*
D54*
X290904Y209896D03*
D32*
X333004Y209896D03*
D54*
X290904Y209696D03*
D32*
X333004Y209696D03*
D30*
X290804Y209496D03*
D32*
X333004Y209496D03*
D30*
X290804Y209296D03*
D32*
X333004Y209296D03*
D30*
X290804Y209096D03*
D32*
X333004Y209096D03*
D30*
X290804Y208896D03*
D32*
X333004Y208896D03*
D30*
X290804Y208696D03*
D145*
X333104Y208696D03*
D29*
X290704Y208496D03*
D145*
X333104Y208496D03*
D29*
X290704Y208296D03*
D145*
X333104Y208296D03*
D29*
X290704Y208096D03*
D145*
X333104Y208096D03*
D29*
X290704Y207896D03*
D145*
X333104Y207896D03*
D29*
X290704Y207696D03*
D31*
X333204Y207696D03*
D29*
X290704Y207496D03*
D31*
X333204Y207496D03*
D29*
X290704Y207296D03*
D31*
X333204Y207296D03*
D29*
X290704Y207096D03*
D31*
X333204Y207096D03*
D29*
X290704Y206896D03*
D31*
X333204Y206896D03*
D29*
X290704Y206696D03*
D31*
X333204Y206696D03*
D32*
X290604Y206496D03*
D40*
X301004Y206496D03*
D25*
X308104Y206496D03*
X315304Y206496D03*
D40*
X322404Y206496D03*
D31*
X333204Y206496D03*
D32*
X290604Y206296D03*
D25*
X300904Y206296D03*
X308104Y206296D03*
D47*
X315404Y206296D03*
D25*
X322504Y206296D03*
D31*
X333204Y206296D03*
D32*
X290604Y206096D03*
D25*
X300904Y206096D03*
X308104Y206096D03*
D47*
X315404Y206096D03*
D25*
X322504Y206096D03*
D31*
X333204Y206096D03*
D32*
X290604Y205896D03*
D25*
X300904Y205896D03*
X308104Y205896D03*
D47*
X315404Y205896D03*
D25*
X322504Y205896D03*
D31*
X333204Y205896D03*
D32*
X290604Y205696D03*
D25*
X300904Y205696D03*
X308104Y205696D03*
D47*
X315404Y205696D03*
D25*
X322504Y205696D03*
D31*
X333204Y205696D03*
D32*
X290604Y205496D03*
D25*
X300904Y205496D03*
X308104Y205496D03*
D47*
X315404Y205496D03*
D25*
X322504Y205496D03*
D31*
X333204Y205496D03*
D32*
X290604Y205296D03*
D25*
X300904Y205296D03*
X308104Y205296D03*
D47*
X315404Y205296D03*
D25*
X322504Y205296D03*
D31*
X333204Y205296D03*
D32*
X290604Y205096D03*
D25*
X300904Y205096D03*
X308104Y205096D03*
D47*
X315404Y205096D03*
D25*
X322504Y205096D03*
D64*
X333304Y205096D03*
D32*
X290604Y204896D03*
D25*
X300904Y204896D03*
X308104Y204896D03*
D47*
X315404Y204896D03*
D25*
X322504Y204896D03*
D64*
X333304Y204896D03*
D32*
X290604Y204696D03*
D25*
X300904Y204696D03*
X308104Y204696D03*
D47*
X315404Y204696D03*
D25*
X322504Y204696D03*
D64*
X333304Y204696D03*
D32*
X290604Y204496D03*
D25*
X300904Y204496D03*
X308104Y204496D03*
D47*
X315404Y204496D03*
D25*
X322504Y204496D03*
D64*
X333304Y204496D03*
D32*
X290604Y204296D03*
D25*
X300904Y204296D03*
X308104Y204296D03*
D47*
X315404Y204296D03*
D25*
X322504Y204296D03*
D64*
X333304Y204296D03*
D32*
X290604Y204096D03*
D25*
X300904Y204096D03*
X308104Y204096D03*
D47*
X315404Y204096D03*
D25*
X322504Y204096D03*
D64*
X333304Y204096D03*
D32*
X290604Y203896D03*
D25*
X300904Y203896D03*
X308104Y203896D03*
D47*
X315404Y203896D03*
D25*
X322504Y203896D03*
D64*
X333304Y203896D03*
D32*
X290604Y203696D03*
D25*
X300904Y203696D03*
X308104Y203696D03*
D47*
X315404Y203696D03*
D25*
X322504Y203696D03*
D64*
X333304Y203696D03*
D32*
X290604Y203496D03*
D25*
X300904Y203496D03*
X308104Y203496D03*
D47*
X315404Y203496D03*
D25*
X322504Y203496D03*
D31*
X333204Y203496D03*
D32*
X290604Y203296D03*
D25*
X300904Y203296D03*
X308104Y203296D03*
D47*
X315404Y203296D03*
D25*
X322504Y203296D03*
D31*
X333204Y203296D03*
D32*
X290604Y203096D03*
D25*
X300904Y203096D03*
X308104Y203096D03*
D47*
X315404Y203096D03*
D25*
X322504Y203096D03*
D31*
X333204Y203096D03*
D32*
X290604Y202896D03*
D25*
X300904Y202896D03*
X308104Y202896D03*
D47*
X315404Y202896D03*
D25*
X322504Y202896D03*
D31*
X333204Y202896D03*
D32*
X290604Y202696D03*
D25*
X300904Y202696D03*
X308104Y202696D03*
D47*
X315404Y202696D03*
D25*
X322504Y202696D03*
D31*
X333204Y202696D03*
D32*
X290604Y202496D03*
D25*
X300904Y202496D03*
X308104Y202496D03*
D47*
X315404Y202496D03*
D25*
X322504Y202496D03*
D31*
X333204Y202496D03*
D32*
X290604Y202296D03*
D25*
X300904Y202296D03*
X308104Y202296D03*
D47*
X315404Y202296D03*
D25*
X322504Y202296D03*
D31*
X333204Y202296D03*
D29*
X290704Y202096D03*
D25*
X300904Y202096D03*
X308104Y202096D03*
D47*
X315404Y202096D03*
D25*
X322504Y202096D03*
D31*
X333204Y202096D03*
D29*
X290704Y201896D03*
D40*
X301004Y201896D03*
D25*
X308104Y201896D03*
X315304Y201896D03*
D40*
X322404Y201896D03*
D31*
X333204Y201896D03*
D29*
X290704Y201696D03*
D31*
X333204Y201696D03*
D29*
X290704Y201496D03*
D31*
X333204Y201496D03*
D29*
X290704Y201296D03*
D31*
X333204Y201296D03*
D29*
X290704Y201096D03*
D31*
X333204Y201096D03*
D29*
X290704Y200896D03*
D31*
X333204Y200896D03*
D29*
X290704Y200696D03*
D145*
X333104Y200696D03*
D29*
X290704Y200496D03*
D145*
X333104Y200496D03*
D29*
X290704Y200296D03*
D145*
X333104Y200296D03*
D30*
X290804Y200096D03*
D145*
X333104Y200096D03*
D30*
X290804Y199896D03*
D32*
X333004Y199896D03*
D30*
X290804Y199696D03*
D32*
X333004Y199696D03*
D30*
X290804Y199496D03*
D32*
X333004Y199496D03*
D30*
X290804Y199296D03*
D32*
X333004Y199296D03*
D54*
X290904Y199096D03*
D32*
X333004Y199096D03*
D54*
X290904Y198896D03*
D32*
X333004Y198896D03*
D54*
X290904Y198696D03*
D29*
X332904Y198696D03*
D54*
X290904Y198496D03*
D29*
X332904Y198496D03*
D52*
X291004Y198296D03*
D29*
X332904Y198296D03*
D52*
X291004Y198096D03*
D29*
X332904Y198096D03*
D52*
X291004Y197896D03*
D30*
X332804Y197896D03*
D52*
X291004Y197696D03*
D30*
X332804Y197696D03*
D27*
X291104Y197496D03*
D30*
X332804Y197496D03*
D27*
X291104Y197296D03*
D54*
X332704Y197296D03*
D52*
X291204Y197096D03*
D30*
X332604Y197096D03*
D146*
X295904Y196896D03*
D32*
X311604Y196896D03*
D147*
X327804Y196896D03*
D146*
X295904Y196696D03*
D32*
X311604Y196696D03*
D147*
X327804Y196696D03*
D146*
X295904Y196496D03*
D32*
X311604Y196496D03*
D148*
X327704Y196496D03*
D146*
X295904Y196296D03*
D145*
X311704Y196296D03*
D149*
X327804Y196296D03*
D68*
X296004Y196096D03*
D145*
X311704Y196096D03*
D150*
X327704Y196096D03*
D146*
X296104Y195896D03*
D145*
X311704Y195896D03*
D150*
X327704Y195896D03*
D68*
X296204Y195696D03*
D145*
X311704Y195696D03*
D150*
X327704Y195696D03*
D68*
X296204Y195496D03*
D31*
X311804Y195496D03*
D151*
X327804Y195496D03*
D68*
X296204Y195296D03*
D145*
X311904Y195296D03*
D146*
X327704Y195296D03*
D152*
X296304Y195096D03*
D145*
X311904Y195096D03*
D68*
X327804Y195096D03*
D152*
X296304Y194896D03*
D145*
X311904Y194896D03*
D152*
X327704Y194896D03*
X296504Y194696D03*
D31*
X312004Y194696D03*
D152*
X327704Y194696D03*
X296504Y194496D03*
D31*
X312004Y194496D03*
D153*
X327704Y194496D03*
D154*
X296604Y194296D03*
D145*
X312104Y194296D03*
D153*
X327704Y194296D03*
D154*
X296604Y194096D03*
D31*
X312204Y194096D03*
D155*
X327804Y194096D03*
D154*
X296604Y193896D03*
D31*
X312204Y193896D03*
D156*
X327704Y193896D03*
D153*
X296704Y193696D03*
D31*
X312204Y193696D03*
D157*
X327704Y193696D03*
D154*
X296804Y193496D03*
D31*
X312404Y193496D03*
D157*
X327704Y193496D03*
D153*
X296904Y193296D03*
D31*
X312404Y193296D03*
D158*
X327804Y193296D03*
D153*
X296904Y193096D03*
D31*
X312404Y193096D03*
D159*
X327804Y193096D03*
D155*
X297004Y192896D03*
D64*
X312504Y192896D03*
D159*
X327804Y192896D03*
D153*
X297104Y192696D03*
D31*
X312604Y192696D03*
D160*
X327804Y192696D03*
D155*
X297204Y192496D03*
D64*
X312704Y192496D03*
D161*
X327704Y192496D03*
D156*
X297304Y192296D03*
D64*
X312704Y192296D03*
D66*
X327804Y192296D03*
D156*
X297304Y192096D03*
D64*
X312904Y192096D03*
D43*
X327804Y192096D03*
D156*
X297504Y191896D03*
D64*
X312904Y191896D03*
D43*
X327804Y191896D03*
D156*
X297504Y191696D03*
D33*
X313004Y191696D03*
D36*
X327804Y191696D03*
D67*
X297604Y191496D03*
D64*
X313104Y191496D03*
D34*
X327904Y191496D03*
D157*
X297704Y191296D03*
D33*
X313204Y191296D03*
D162*
X327904Y191296D03*
D67*
X297804Y191096D03*
D33*
X313204Y191096D03*
D163*
X327804Y191096D03*
D157*
X297904Y190896D03*
D33*
X313404Y190896D03*
D164*
X327904Y190896D03*
D67*
X298004Y190696D03*
D33*
X313404Y190696D03*
D46*
X327904Y190696D03*
D157*
X298104Y190496D03*
D33*
X313604Y190496D03*
D44*
X327904Y190496D03*
D158*
X298204Y190296D03*
D62*
X313704Y190296D03*
D42*
X328004Y190296D03*
D158*
X298204Y190096D03*
D62*
X313704Y190096D03*
D41*
X328004Y190096D03*
D158*
X298404Y189896D03*
D62*
X313904Y189896D03*
D65*
X328004Y189896D03*
D165*
X298504Y189696D03*
D62*
X313904Y189696D03*
D35*
X328104Y189696D03*
D165*
X298704Y189496D03*
D62*
X314104Y189496D03*
X328104Y189496D03*
D165*
X298704Y189296D03*
D166*
X314204Y189296D03*
D31*
X328204Y189296D03*
D159*
X298804Y189096D03*
D166*
X314404Y189096D03*
D32*
X328204Y189096D03*
D159*
X299004Y188896D03*
D166*
X314404Y188896D03*
D29*
X328304Y188896D03*
D159*
X299004Y188696D03*
D166*
X314604Y188696D03*
D54*
X328304Y188696D03*
D160*
X299204Y188496D03*
D35*
X314704Y188496D03*
D26*
X328404Y188496D03*
D167*
X299304Y188296D03*
D35*
X314904Y188296D03*
D25*
X328504Y188296D03*
D160*
X299404Y188096D03*
D35*
X314904Y188096D03*
D37*
X328504Y188096D03*
D160*
X299604Y187896D03*
D35*
X315104Y187896D03*
D24*
X328604Y187896D03*
D161*
X299704Y187696D03*
D65*
X315204Y187696D03*
D19*
X328704Y187696D03*
D161*
X299904Y187496D03*
D65*
X315404Y187496D03*
D21*
X328904Y187496D03*
D66*
X300004Y187296D03*
D38*
X315504Y187296D03*
D59*
X329004Y187296D03*
D66*
X300204Y187096D03*
D38*
X315704Y187096D03*
D20*
X329204Y187096D03*
D45*
X300304Y186896D03*
D38*
X315904Y186896D03*
D168*
X329204Y186896D03*
D45*
X300504Y186696D03*
D41*
X316004Y186696D03*
D43*
X300604Y186496D03*
D41*
X316204Y186496D03*
D43*
X300804Y186296D03*
D61*
X316304Y186296D03*
D39*
X300904Y186096D03*
D61*
X316504Y186096D03*
D39*
X301104Y185896D03*
D61*
X316704Y185896D03*
D36*
X301204Y185696D03*
D61*
X316904Y185696D03*
D36*
X301404Y185496D03*
D44*
X317104Y185496D03*
D34*
X301504Y185296D03*
D44*
X317304Y185296D03*
D34*
X301704Y185096D03*
D44*
X317504Y185096D03*
D162*
X301904Y184896D03*
D46*
X317704Y184896D03*
D162*
X302104Y184696D03*
D46*
X317904Y184696D03*
D162*
X302304Y184496D03*
D46*
X318104Y184496D03*
D164*
X302504Y184296D03*
D60*
X318404Y184296D03*
D164*
X302704Y184096D03*
D163*
X318604Y184096D03*
D46*
X302904Y183896D03*
D163*
X318804Y183896D03*
D46*
X303104Y183696D03*
D162*
X319104Y183696D03*
D49*
X303404Y183496D03*
D63*
X319404Y183496D03*
D49*
X303604Y183296D03*
D34*
X319704Y183296D03*
D42*
X303804Y183096D03*
D36*
X320004Y183096D03*
D61*
X304104Y182896D03*
D39*
X320304Y182896D03*
D41*
X304204Y182696D03*
D45*
X320704Y182696D03*
D38*
X304504Y182496D03*
D66*
X321004Y182496D03*
D65*
X304804Y182296D03*
D167*
X321504Y182296D03*
D35*
X305104Y182096D03*
D165*
X321904Y182096D03*
D62*
X305304Y181896D03*
D67*
X322404Y181896D03*
D33*
X305604Y181696D03*
D154*
X323004Y181696D03*
D64*
X305904Y181496D03*
D149*
X323804Y181496D03*
D53*
X332804Y181496D03*
D145*
X306304Y181296D03*
D169*
X325504Y181296D03*
D32*
X306604Y181096D03*
D71*
X325604Y181096D03*
D52*
X307004Y180896D03*
D170*
X325704Y180896D03*
D26*
X307404Y180696D03*
D171*
X325804Y180696D03*
D47*
X307804Y180496D03*
D172*
X325904Y180496D03*
D37*
X308304Y180296D03*
D173*
X326004Y180296D03*
D28*
X308704Y180096D03*
D70*
X326204Y180096D03*
D55*
X309404Y179896D03*
D174*
X326304Y179896D03*
D17*
X310104Y179696D03*
D175*
X326404Y179696D03*
D176*
X326604Y179496D03*
D69*
X326704Y179296D03*
D148*
X326904Y179096D03*
D149*
X327004Y178896D03*
D150*
X327104Y178696D03*
D146*
X327304Y178496D03*
D152*
X327504Y178296D03*
D154*
X327604Y178096D03*
D155*
X327804Y177896D03*
D67*
X328004Y177696D03*
D158*
X328204Y177496D03*
D159*
X328404Y177296D03*
D160*
X328604Y177096D03*
D66*
X328804Y176896D03*
D39*
X329104Y176696D03*
D34*
X329304Y176496D03*
D163*
X329604Y176296D03*
D60*
X329804Y176096D03*
D42*
X330204Y175896D03*
D38*
X330504Y175696D03*
D166*
X330804Y175496D03*
D145*
X331304Y175296D03*
D54*
X331704Y175096D03*
D37*
X332504Y174896D03*
D15*
X61976Y359664D02*
X67056Y371094D01*
X59436Y361188D02*
X61976Y359664D01*
X59436Y361188D02*
X53340Y356870D01*
X48768Y361696D01*
X52832Y367792D01*
X50292Y374650D02*
X42672Y375920D01*
X42672Y382524D01*
X50292Y384048D01*
X53086Y390398D02*
X48514Y397002D01*
X53340Y401574D01*
X59944Y397002D01*
X66294Y399542D02*
X67564Y407670D01*
X74422Y407670D01*
X75692Y399542D01*
X82042Y397002D02*
X88646Y401574D01*
X93472Y397002D01*
X88900Y390398D01*
X91694Y384048D02*
X99314Y382524D01*
X99314Y375920D01*
X91694Y374650D01*
X89154Y367792D02*
X93472Y361696D01*
X88646Y356870D01*
X82550Y361188D01*
X80010Y359664D01*
X75184Y371094D01*
X75184Y371348D02*
X75388Y371450D01*
X75589Y371557D01*
X75787Y371669D01*
X75983Y371785D01*
X76176Y371907D01*
X76366Y372032D01*
X76552Y372163D01*
X76736Y372298D01*
X76916Y372438D01*
X77092Y372582D01*
X77265Y372730D01*
X77435Y372882D01*
X77600Y373039D01*
X77762Y373199D01*
X77920Y373363D01*
X78073Y373532D01*
X78223Y373704D01*
X78368Y373879D01*
X78509Y374058D01*
X78646Y374240D01*
X78778Y374426D01*
X78905Y374615D01*
X79028Y374807D01*
X79146Y375002D01*
X79259Y375199D01*
X79367Y375400D01*
X79471Y375603D01*
X79569Y375808D01*
X79663Y376016D01*
X79751Y376226D01*
X79834Y376438D01*
X79912Y376652D01*
X79984Y376868D01*
X80052Y377086D01*
X80114Y377305D01*
X80170Y377525D01*
X80222Y377747D01*
X80267Y377971D01*
X80308Y378195D01*
X80342Y378420D01*
X80372Y378646D01*
X80395Y378872D01*
X80414Y379099D01*
X80426Y379327D01*
X80433Y379555D01*
X80435Y379782D01*
X80431Y380010D01*
X80421Y380238D01*
X80406Y380465D01*
X80385Y380692D01*
X80359Y380918D01*
X80327Y381144D01*
X80290Y381368D01*
X80247Y381592D01*
X80199Y381815D01*
X80145Y382036D01*
X80086Y382256D01*
X80021Y382475D01*
X79952Y382692D01*
X79877Y382907D01*
X79796Y383120D01*
X79711Y383331D01*
X79620Y383540D01*
X79524Y383747D01*
X79424Y383951D01*
X79318Y384153D01*
X79207Y384352D01*
X79092Y384548D01*
X78972Y384742D01*
X78847Y384932D01*
X78717Y385120D01*
X78583Y385304D01*
X78445Y385485D01*
X78302Y385662D01*
X78155Y385836D01*
X78003Y386006D01*
X77848Y386173D01*
X77688Y386335D01*
X77525Y386494D01*
X77357Y386648D01*
X77186Y386799D01*
X77012Y386945D01*
X76833Y387087D01*
X76652Y387225D01*
X76467Y387358D01*
X76279Y387486D01*
X76088Y387610D01*
X75893Y387729D01*
X75696Y387843D01*
X75497Y387953D01*
X75294Y388057D01*
X75089Y388157D01*
X74882Y388251D01*
X74673Y388341D01*
X74461Y388425D01*
X74247Y388504D01*
X74032Y388578D01*
X73815Y388647D01*
X73596Y388710D01*
X73375Y388768D01*
X73154Y388820D01*
X72931Y388867D01*
X72707Y388909D01*
X72482Y388945D01*
X72256Y388975D01*
X72030Y389000D01*
X71803Y389020D01*
X71575Y389034D01*
X71348Y389042D01*
X71120Y389045D01*
X70892Y389042D01*
X70665Y389034D01*
X70437Y389020D01*
X70210Y389000D01*
X69984Y388975D01*
X69758Y388945D01*
X69533Y388909D01*
X69309Y388867D01*
X69086Y388820D01*
X68865Y388768D01*
X68644Y388710D01*
X68425Y388647D01*
X68208Y388578D01*
X67993Y388504D01*
X67779Y388425D01*
X67567Y388341D01*
X67358Y388251D01*
X67151Y388157D01*
X66946Y388057D01*
X66743Y387953D01*
X66544Y387843D01*
X66347Y387729D01*
X66152Y387610D01*
X65961Y387486D01*
X65773Y387358D01*
X65588Y387225D01*
X65407Y387087D01*
X65228Y386945D01*
X65054Y386799D01*
X64883Y386648D01*
X64715Y386494D01*
X64552Y386335D01*
X64392Y386173D01*
X64237Y386006D01*
X64085Y385836D01*
X63938Y385662D01*
X63795Y385485D01*
X63657Y385304D01*
X63523Y385120D01*
X63393Y384932D01*
X63268Y384742D01*
X63148Y384548D01*
X63033Y384352D01*
X62922Y384153D01*
X62816Y383951D01*
X62716Y383747D01*
X62620Y383540D01*
X62529Y383331D01*
X62444Y383120D01*
X62363Y382907D01*
X62288Y382692D01*
X62219Y382475D01*
X62154Y382256D01*
X62095Y382036D01*
X62041Y381815D01*
X61993Y381592D01*
X61950Y381368D01*
X61913Y381144D01*
X61881Y380918D01*
X61855Y380692D01*
X61834Y380465D01*
X61819Y380238D01*
X61809Y380010D01*
X61805Y379782D01*
X61807Y379555D01*
X61814Y379327D01*
X61826Y379099D01*
X61845Y378872D01*
X61868Y378646D01*
X61898Y378420D01*
X61932Y378195D01*
X61973Y377971D01*
X62018Y377747D01*
X62070Y377525D01*
X62126Y377305D01*
X62188Y377086D01*
X62256Y376868D01*
X62328Y376652D01*
X62406Y376438D01*
X62489Y376226D01*
X62577Y376016D01*
X62671Y375808D01*
X62769Y375603D01*
X62873Y375400D01*
X62981Y375199D01*
X63094Y375002D01*
X63212Y374807D01*
X63335Y374615D01*
X63462Y374426D01*
X63594Y374240D01*
X63731Y374058D01*
X63872Y373879D01*
X64017Y373704D01*
X64167Y373532D01*
X64320Y373363D01*
X64478Y373199D01*
X64640Y373039D01*
X64805Y372882D01*
X64975Y372730D01*
X65148Y372582D01*
X65324Y372438D01*
X65504Y372298D01*
X65688Y372163D01*
X65874Y372032D01*
X66064Y371907D01*
X66257Y371785D01*
X66453Y371669D01*
X66651Y371557D01*
X66852Y371450D01*
X67056Y371348D01*
X52917Y367873D02*
X52655Y368321D01*
X52405Y368775D01*
X52165Y369235D01*
X51937Y369701D01*
X51721Y370172D01*
X51516Y370648D01*
X51323Y371129D01*
X51142Y371615D01*
X50972Y372105D01*
X50815Y372599D01*
X50670Y373097D01*
X50537Y373598D01*
X50417Y374102D01*
X50309Y374610D01*
X50451Y384049D02*
X50573Y384518D01*
X50706Y384984D01*
X50850Y385447D01*
X51004Y385906D01*
X51169Y386362D01*
X51344Y386814D01*
X51530Y387262D01*
X51725Y387705D01*
X51931Y388144D01*
X52147Y388578D01*
X52372Y389007D01*
X52608Y389431D01*
X52853Y389849D01*
X53107Y390262D01*
X60031Y397093D02*
X60468Y397349D01*
X60911Y397594D01*
X61360Y397829D01*
X61814Y398052D01*
X62273Y398265D01*
X62737Y398466D01*
X63206Y398657D01*
X63680Y398836D01*
X64157Y399004D01*
X64639Y399160D01*
X65124Y399305D01*
X65612Y399438D01*
X66104Y399559D01*
X75827Y399606D02*
X76302Y399491D01*
X76774Y399366D01*
X77243Y399230D01*
X77709Y399083D01*
X78171Y398926D01*
X78630Y398758D01*
X79085Y398580D01*
X79535Y398391D01*
X79981Y398191D01*
X80422Y397982D01*
X80859Y397763D01*
X81290Y397533D01*
X81716Y397294D01*
X82136Y397045D01*
X88871Y390357D02*
X89140Y389942D01*
X89399Y389519D01*
X89647Y389091D01*
X89885Y388657D01*
X90113Y388217D01*
X90330Y387772D01*
X90536Y387321D01*
X90732Y386866D01*
X90916Y386407D01*
X91089Y385943D01*
X91251Y385475D01*
X91402Y385003D01*
X91541Y384528D01*
X91669Y384049D01*
X91717Y374562D02*
X91623Y374085D01*
X91518Y373611D01*
X91401Y373139D01*
X91273Y372671D01*
X91134Y372205D01*
X90984Y371743D01*
X90823Y371284D01*
X90652Y370830D01*
X90469Y370379D01*
X90276Y369933D01*
X90073Y369492D01*
X89859Y369056D01*
X89635Y368625D01*
X89401Y368199D01*
X89156Y367779D01*
M02*
