G04 EAGLE Gerber RS-274X export*
G75*
%MOMM*%
%FSLAX34Y34*%
%LPD*%
%INSolderpaste Top*%
%IPPOS*%
%AMOC8*
5,1,8,0,0,1.08239X$1,22.5*%
G01*
%ADD10C,0.222250*%
%ADD11C,0.254000*%
%ADD12R,1.800000X2.200000*%
%ADD13R,1.350000X0.600000*%
%ADD14R,2.000000X1.200000*%
%ADD15C,0.550000*%
%ADD16R,0.508000X1.016000*%


D10*
X291560Y85884D02*
X298228Y85884D01*
X298228Y79216D01*
X291560Y79216D01*
X291560Y85884D01*
X291560Y81328D02*
X298228Y81328D01*
X298228Y83440D02*
X291560Y83440D01*
X291560Y85552D02*
X298228Y85552D01*
X282988Y85884D02*
X276320Y85884D01*
X282988Y85884D02*
X282988Y79216D01*
X276320Y79216D01*
X276320Y85884D01*
X276320Y81328D02*
X282988Y81328D01*
X282988Y83440D02*
X276320Y83440D01*
X276320Y85552D02*
X282988Y85552D01*
X246094Y161766D02*
X246094Y168434D01*
X252762Y168434D01*
X252762Y161766D01*
X246094Y161766D01*
X246094Y163878D02*
X252762Y163878D01*
X252762Y165990D02*
X246094Y165990D01*
X246094Y168102D02*
X252762Y168102D01*
X246094Y153194D02*
X246094Y146526D01*
X246094Y153194D02*
X252762Y153194D01*
X252762Y146526D01*
X246094Y146526D01*
X246094Y148638D02*
X252762Y148638D01*
X252762Y150750D02*
X246094Y150750D01*
X246094Y152862D02*
X252762Y152862D01*
X231108Y161766D02*
X231108Y168434D01*
X237776Y168434D01*
X237776Y161766D01*
X231108Y161766D01*
X231108Y163878D02*
X237776Y163878D01*
X237776Y165990D02*
X231108Y165990D01*
X231108Y168102D02*
X237776Y168102D01*
X231108Y153194D02*
X231108Y146526D01*
X231108Y153194D02*
X237776Y153194D01*
X237776Y146526D01*
X231108Y146526D01*
X231108Y148638D02*
X237776Y148638D01*
X237776Y150750D02*
X231108Y150750D01*
X231108Y152862D02*
X237776Y152862D01*
X211804Y161766D02*
X211804Y168434D01*
X218472Y168434D01*
X218472Y161766D01*
X211804Y161766D01*
X211804Y163878D02*
X218472Y163878D01*
X218472Y165990D02*
X211804Y165990D01*
X211804Y168102D02*
X218472Y168102D01*
X211804Y153194D02*
X211804Y146526D01*
X211804Y153194D02*
X218472Y153194D01*
X218472Y146526D01*
X211804Y146526D01*
X211804Y148638D02*
X218472Y148638D01*
X218472Y150750D02*
X211804Y150750D01*
X211804Y152862D02*
X218472Y152862D01*
X188246Y153194D02*
X188246Y146526D01*
X181578Y146526D01*
X181578Y153194D01*
X188246Y153194D01*
X188246Y148638D02*
X181578Y148638D01*
X181578Y150750D02*
X188246Y150750D01*
X188246Y152862D02*
X181578Y152862D01*
X188246Y161766D02*
X188246Y168434D01*
X188246Y161766D02*
X181578Y161766D01*
X181578Y168434D01*
X188246Y168434D01*
X188246Y163878D02*
X181578Y163878D01*
X181578Y165990D02*
X188246Y165990D01*
X188246Y168102D02*
X181578Y168102D01*
D11*
X87884Y190881D02*
X80264Y190881D01*
X80264Y202311D01*
X87884Y202311D01*
X87884Y190881D01*
X87884Y193294D02*
X80264Y193294D01*
X80264Y195707D02*
X87884Y195707D01*
X87884Y198120D02*
X80264Y198120D01*
X80264Y200533D02*
X87884Y200533D01*
X98044Y190881D02*
X105664Y190881D01*
X98044Y190881D02*
X98044Y202311D01*
X105664Y202311D01*
X105664Y190881D01*
X105664Y193294D02*
X98044Y193294D01*
X98044Y195707D02*
X105664Y195707D01*
X105664Y198120D02*
X98044Y198120D01*
X98044Y200533D02*
X105664Y200533D01*
X61214Y90551D02*
X53594Y90551D01*
X61214Y90551D02*
X61214Y79121D01*
X53594Y79121D01*
X53594Y90551D01*
X53594Y81534D02*
X61214Y81534D01*
X61214Y83947D02*
X53594Y83947D01*
X53594Y86360D02*
X61214Y86360D01*
X61214Y88773D02*
X53594Y88773D01*
X43434Y90551D02*
X35814Y90551D01*
X43434Y90551D02*
X43434Y79121D01*
X35814Y79121D01*
X35814Y90551D01*
X35814Y81534D02*
X43434Y81534D01*
X43434Y83947D02*
X35814Y83947D01*
X35814Y86360D02*
X43434Y86360D01*
X43434Y88773D02*
X35814Y88773D01*
D12*
X74268Y110744D03*
X23268Y110744D03*
D13*
X312800Y285000D03*
X312800Y295000D03*
X312800Y305000D03*
X312800Y315000D03*
D14*
X349550Y328000D03*
X349550Y272000D03*
D13*
X52000Y315000D03*
X52000Y305000D03*
X52000Y295000D03*
X52000Y285000D03*
D14*
X15250Y272000D03*
X15250Y328000D03*
D15*
X24890Y175484D02*
X24890Y169984D01*
X24890Y175484D02*
X56390Y175484D01*
X56390Y169984D01*
X24890Y169984D01*
X24890Y175209D02*
X56390Y175209D01*
X24890Y145484D02*
X24890Y139984D01*
X24890Y145484D02*
X56390Y145484D01*
X56390Y139984D01*
X24890Y139984D01*
X24890Y145209D02*
X56390Y145209D01*
D10*
X284258Y339820D02*
X284258Y346488D01*
X284258Y339820D02*
X277590Y339820D01*
X277590Y346488D01*
X284258Y346488D01*
X284258Y341932D02*
X277590Y341932D01*
X277590Y344044D02*
X284258Y344044D01*
X284258Y346156D02*
X277590Y346156D01*
X284258Y355060D02*
X284258Y361728D01*
X284258Y355060D02*
X277590Y355060D01*
X277590Y361728D01*
X284258Y361728D01*
X284258Y357172D02*
X277590Y357172D01*
X277590Y359284D02*
X284258Y359284D01*
X284258Y361396D02*
X277590Y361396D01*
X268002Y346488D02*
X268002Y339820D01*
X261334Y339820D01*
X261334Y346488D01*
X268002Y346488D01*
X268002Y341932D02*
X261334Y341932D01*
X261334Y344044D02*
X268002Y344044D01*
X268002Y346156D02*
X261334Y346156D01*
X268002Y355060D02*
X268002Y361728D01*
X268002Y355060D02*
X261334Y355060D01*
X261334Y361728D01*
X268002Y361728D01*
X268002Y357172D02*
X261334Y357172D01*
X261334Y359284D02*
X268002Y359284D01*
X268002Y361396D02*
X261334Y361396D01*
X196818Y168434D02*
X196818Y161766D01*
X196818Y168434D02*
X203486Y168434D01*
X203486Y161766D01*
X196818Y161766D01*
X196818Y163878D02*
X203486Y163878D01*
X203486Y165990D02*
X196818Y165990D01*
X196818Y168102D02*
X203486Y168102D01*
X196818Y153194D02*
X196818Y146526D01*
X196818Y153194D02*
X203486Y153194D01*
X203486Y146526D01*
X196818Y146526D01*
X196818Y148638D02*
X203486Y148638D01*
X203486Y150750D02*
X196818Y150750D01*
X196818Y152862D02*
X203486Y152862D01*
X166592Y161766D02*
X166592Y168434D01*
X173260Y168434D01*
X173260Y161766D01*
X166592Y161766D01*
X166592Y163878D02*
X173260Y163878D01*
X173260Y165990D02*
X166592Y165990D01*
X166592Y168102D02*
X173260Y168102D01*
X166592Y153194D02*
X166592Y146526D01*
X166592Y153194D02*
X173260Y153194D01*
X173260Y146526D01*
X166592Y146526D01*
X166592Y148638D02*
X173260Y148638D01*
X173260Y150750D02*
X166592Y150750D01*
X166592Y152862D02*
X173260Y152862D01*
X89884Y120682D02*
X89884Y114014D01*
X89884Y120682D02*
X96552Y120682D01*
X96552Y114014D01*
X89884Y114014D01*
X89884Y116126D02*
X96552Y116126D01*
X96552Y118238D02*
X89884Y118238D01*
X89884Y120350D02*
X96552Y120350D01*
X89884Y105442D02*
X89884Y98774D01*
X89884Y105442D02*
X96552Y105442D01*
X96552Y98774D01*
X89884Y98774D01*
X89884Y100886D02*
X96552Y100886D01*
X96552Y102998D02*
X89884Y102998D01*
X89884Y105110D02*
X96552Y105110D01*
X111030Y105442D02*
X111030Y98774D01*
X104362Y98774D01*
X104362Y105442D01*
X111030Y105442D01*
X111030Y100886D02*
X104362Y100886D01*
X104362Y102998D02*
X111030Y102998D01*
X111030Y105110D02*
X104362Y105110D01*
X111030Y114014D02*
X111030Y120682D01*
X111030Y114014D02*
X104362Y114014D01*
X104362Y120682D01*
X111030Y120682D01*
X111030Y116126D02*
X104362Y116126D01*
X104362Y118238D02*
X111030Y118238D01*
X111030Y120350D02*
X104362Y120350D01*
X298228Y105696D02*
X298228Y99028D01*
X291560Y99028D01*
X291560Y105696D01*
X298228Y105696D01*
X298228Y101140D02*
X291560Y101140D01*
X291560Y103252D02*
X298228Y103252D01*
X298228Y105364D02*
X291560Y105364D01*
X298228Y114268D02*
X298228Y120936D01*
X298228Y114268D02*
X291560Y114268D01*
X291560Y120936D01*
X298228Y120936D01*
X298228Y116380D02*
X291560Y116380D01*
X291560Y118492D02*
X298228Y118492D01*
X298228Y120604D02*
X291560Y120604D01*
D16*
X74422Y146304D03*
X83820Y146304D03*
X93218Y146304D03*
X93218Y169164D03*
X83820Y169164D03*
X74422Y169164D03*
D10*
X59468Y69628D02*
X52800Y69628D01*
X59468Y69628D02*
X59468Y62960D01*
X52800Y62960D01*
X52800Y69628D01*
X52800Y65072D02*
X59468Y65072D01*
X59468Y67184D02*
X52800Y67184D01*
X52800Y69296D02*
X59468Y69296D01*
X44228Y69628D02*
X37560Y69628D01*
X44228Y69628D02*
X44228Y62960D01*
X37560Y62960D01*
X37560Y69628D01*
X37560Y65072D02*
X44228Y65072D01*
X44228Y67184D02*
X37560Y67184D01*
X37560Y69296D02*
X44228Y69296D01*
M02*
