G04 EAGLE Gerber RS-274X export*
G75*
%MOMM*%
%FSLAX34Y34*%
%LPD*%
%INBottom Copper*%
%IPPOS*%
%AMOC8*
5,1,8,0,0,1.08239X$1,22.5*%
G01*
%ADD10R,0.350000X3.000000*%
%ADD11R,1.651000X1.651000*%
%ADD12C,1.651000*%
%ADD13C,0.609600*%
%ADD14C,0.304800*%
%ADD15C,0.203200*%

G36*
X21578Y5223D02*
X21578Y5223D01*
X21675Y5233D01*
X21699Y5243D01*
X21725Y5247D01*
X21811Y5293D01*
X21900Y5333D01*
X21919Y5350D01*
X21942Y5363D01*
X22009Y5433D01*
X22081Y5499D01*
X22094Y5522D01*
X22112Y5541D01*
X22153Y5629D01*
X22200Y5715D01*
X22204Y5740D01*
X22215Y5764D01*
X22226Y5861D01*
X22243Y5957D01*
X22240Y5983D01*
X22242Y6008D01*
X22222Y6104D01*
X22208Y6200D01*
X22196Y6223D01*
X22190Y6249D01*
X22140Y6332D01*
X22096Y6419D01*
X22077Y6438D01*
X22064Y6460D01*
X21990Y6523D01*
X21921Y6591D01*
X21892Y6607D01*
X21877Y6620D01*
X21846Y6632D01*
X21774Y6672D01*
X18625Y7976D01*
X12976Y13625D01*
X9919Y21006D01*
X9919Y28994D01*
X12976Y36375D01*
X18625Y42024D01*
X26006Y45081D01*
X33994Y45081D01*
X41375Y42024D01*
X47024Y36375D01*
X50081Y28994D01*
X50081Y21006D01*
X47024Y13625D01*
X41375Y7976D01*
X38226Y6672D01*
X38143Y6621D01*
X38058Y6575D01*
X38040Y6557D01*
X38017Y6543D01*
X37955Y6467D01*
X37888Y6397D01*
X37877Y6373D01*
X37861Y6353D01*
X37826Y6262D01*
X37785Y6174D01*
X37782Y6148D01*
X37772Y6124D01*
X37768Y6026D01*
X37758Y5930D01*
X37763Y5904D01*
X37762Y5878D01*
X37789Y5784D01*
X37810Y5689D01*
X37823Y5667D01*
X37830Y5642D01*
X37886Y5562D01*
X37936Y5478D01*
X37956Y5461D01*
X37971Y5440D01*
X38049Y5381D01*
X38123Y5318D01*
X38147Y5308D01*
X38168Y5293D01*
X38261Y5263D01*
X38351Y5226D01*
X38383Y5223D01*
X38402Y5217D01*
X38435Y5217D01*
X38518Y5208D01*
X326282Y5208D01*
X326378Y5223D01*
X326475Y5233D01*
X326499Y5243D01*
X326525Y5247D01*
X326611Y5293D01*
X326700Y5333D01*
X326719Y5350D01*
X326742Y5363D01*
X326809Y5433D01*
X326881Y5499D01*
X326894Y5522D01*
X326912Y5541D01*
X326953Y5629D01*
X327000Y5715D01*
X327004Y5740D01*
X327015Y5764D01*
X327026Y5861D01*
X327043Y5957D01*
X327040Y5983D01*
X327042Y6008D01*
X327022Y6104D01*
X327008Y6200D01*
X326996Y6223D01*
X326990Y6249D01*
X326940Y6332D01*
X326896Y6419D01*
X326877Y6438D01*
X326864Y6460D01*
X326790Y6523D01*
X326721Y6591D01*
X326692Y6607D01*
X326677Y6620D01*
X326646Y6632D01*
X326574Y6672D01*
X323425Y7976D01*
X317776Y13625D01*
X314719Y21006D01*
X314719Y28994D01*
X317776Y36375D01*
X323425Y42024D01*
X330806Y45081D01*
X338794Y45081D01*
X346175Y42024D01*
X351824Y36375D01*
X354881Y28994D01*
X354881Y21006D01*
X351824Y13625D01*
X346175Y7976D01*
X343026Y6672D01*
X342943Y6621D01*
X342858Y6575D01*
X342840Y6557D01*
X342817Y6543D01*
X342755Y6467D01*
X342688Y6397D01*
X342677Y6373D01*
X342661Y6353D01*
X342626Y6262D01*
X342585Y6174D01*
X342582Y6148D01*
X342572Y6124D01*
X342568Y6026D01*
X342558Y5930D01*
X342563Y5904D01*
X342562Y5878D01*
X342589Y5784D01*
X342610Y5689D01*
X342623Y5667D01*
X342630Y5642D01*
X342686Y5562D01*
X342736Y5478D01*
X342756Y5461D01*
X342771Y5440D01*
X342849Y5381D01*
X342923Y5318D01*
X342947Y5308D01*
X342968Y5293D01*
X343061Y5263D01*
X343151Y5226D01*
X343183Y5223D01*
X343202Y5217D01*
X343235Y5217D01*
X343318Y5208D01*
X358831Y5208D01*
X358851Y5211D01*
X358870Y5209D01*
X358972Y5231D01*
X359074Y5247D01*
X359091Y5257D01*
X359111Y5261D01*
X359200Y5314D01*
X359291Y5363D01*
X359305Y5377D01*
X359322Y5387D01*
X359389Y5466D01*
X359461Y5541D01*
X359469Y5559D01*
X359482Y5574D01*
X359521Y5670D01*
X359564Y5764D01*
X359566Y5784D01*
X359574Y5802D01*
X359592Y5969D01*
X359592Y449431D01*
X359589Y449451D01*
X359591Y449470D01*
X359569Y449572D01*
X359553Y449674D01*
X359543Y449691D01*
X359539Y449711D01*
X359486Y449800D01*
X359437Y449891D01*
X359423Y449905D01*
X359413Y449922D01*
X359334Y449989D01*
X359259Y450061D01*
X359241Y450069D01*
X359226Y450082D01*
X359130Y450121D01*
X359036Y450164D01*
X359016Y450166D01*
X358998Y450174D01*
X358831Y450192D01*
X345732Y450192D01*
X345636Y450177D01*
X345539Y450167D01*
X345515Y450157D01*
X345489Y450153D01*
X345403Y450107D01*
X345314Y450067D01*
X345295Y450050D01*
X345272Y450037D01*
X345205Y449967D01*
X345133Y449901D01*
X345120Y449878D01*
X345102Y449859D01*
X345061Y449771D01*
X345014Y449685D01*
X345010Y449660D01*
X344999Y449636D01*
X344988Y449539D01*
X344971Y449443D01*
X344975Y449417D01*
X344972Y449392D01*
X344992Y449297D01*
X345007Y449200D01*
X345018Y449177D01*
X345024Y449151D01*
X345074Y449067D01*
X345118Y448981D01*
X345137Y448963D01*
X345150Y448940D01*
X345224Y448877D01*
X345294Y448809D01*
X345322Y448793D01*
X345337Y448780D01*
X345368Y448768D01*
X345441Y448728D01*
X346175Y448424D01*
X351824Y442775D01*
X354881Y435394D01*
X354881Y427406D01*
X351824Y420025D01*
X346175Y414376D01*
X338794Y411319D01*
X330806Y411319D01*
X323425Y414376D01*
X317776Y420025D01*
X314719Y427406D01*
X314719Y435394D01*
X317776Y442775D01*
X323425Y448424D01*
X324159Y448728D01*
X324242Y448779D01*
X324328Y448825D01*
X324346Y448844D01*
X324368Y448857D01*
X324431Y448932D01*
X324498Y449003D01*
X324509Y449027D01*
X324525Y449047D01*
X324560Y449138D01*
X324601Y449226D01*
X324604Y449252D01*
X324613Y449276D01*
X324618Y449374D01*
X324628Y449470D01*
X324623Y449496D01*
X324624Y449522D01*
X324597Y449616D01*
X324576Y449711D01*
X324563Y449733D01*
X324555Y449758D01*
X324500Y449838D01*
X324450Y449922D01*
X324430Y449939D01*
X324415Y449960D01*
X324337Y450019D01*
X324263Y450082D01*
X324239Y450092D01*
X324218Y450107D01*
X324125Y450137D01*
X324035Y450174D01*
X324002Y450177D01*
X323984Y450183D01*
X323951Y450183D01*
X323868Y450192D01*
X228813Y450192D01*
X228742Y450181D01*
X228671Y450179D01*
X228622Y450161D01*
X228570Y450153D01*
X228507Y450119D01*
X228440Y450094D01*
X228399Y450062D01*
X228353Y450037D01*
X228303Y449985D01*
X228248Y449941D01*
X228219Y449897D01*
X228184Y449859D01*
X228153Y449794D01*
X228115Y449734D01*
X228102Y449683D01*
X228080Y449636D01*
X228072Y449565D01*
X228054Y449495D01*
X228059Y449443D01*
X228053Y449392D01*
X228068Y449321D01*
X228074Y449250D01*
X228094Y449202D01*
X228105Y449151D01*
X228142Y449090D01*
X228170Y449024D01*
X228215Y448968D01*
X228231Y448940D01*
X228249Y448925D01*
X228275Y448893D01*
X228735Y448433D01*
X229733Y447058D01*
X230505Y445544D01*
X231030Y443928D01*
X231189Y442923D01*
X221262Y442923D01*
X221242Y442920D01*
X221223Y442922D01*
X221121Y442900D01*
X221019Y442883D01*
X221002Y442874D01*
X220982Y442870D01*
X220893Y442817D01*
X220802Y442768D01*
X220788Y442754D01*
X220771Y442744D01*
X220704Y442665D01*
X220633Y442590D01*
X220624Y442572D01*
X220611Y442557D01*
X220573Y442461D01*
X220529Y442367D01*
X220527Y442347D01*
X220519Y442329D01*
X220501Y442162D01*
X220501Y441399D01*
X220499Y441399D01*
X220499Y442162D01*
X220496Y442182D01*
X220498Y442201D01*
X220476Y442303D01*
X220459Y442405D01*
X220450Y442422D01*
X220446Y442442D01*
X220393Y442531D01*
X220344Y442622D01*
X220330Y442636D01*
X220320Y442653D01*
X220241Y442720D01*
X220166Y442791D01*
X220148Y442800D01*
X220133Y442813D01*
X220037Y442852D01*
X219943Y442895D01*
X219923Y442897D01*
X219905Y442905D01*
X219738Y442923D01*
X209811Y442923D01*
X209970Y443928D01*
X210495Y445544D01*
X211267Y447058D01*
X212265Y448433D01*
X212725Y448893D01*
X212767Y448951D01*
X212816Y449003D01*
X212838Y449050D01*
X212869Y449092D01*
X212890Y449161D01*
X212920Y449226D01*
X212926Y449278D01*
X212941Y449328D01*
X212939Y449399D01*
X212947Y449470D01*
X212936Y449521D01*
X212935Y449573D01*
X212910Y449641D01*
X212895Y449711D01*
X212868Y449756D01*
X212850Y449804D01*
X212806Y449860D01*
X212769Y449922D01*
X212729Y449956D01*
X212697Y449996D01*
X212636Y450035D01*
X212582Y450082D01*
X212533Y450101D01*
X212490Y450129D01*
X212420Y450147D01*
X212354Y450174D01*
X212282Y450182D01*
X212251Y450190D01*
X212228Y450188D01*
X212187Y450192D01*
X202335Y450192D01*
X202265Y450181D01*
X202193Y450179D01*
X202144Y450161D01*
X202093Y450153D01*
X202029Y450119D01*
X201962Y450094D01*
X201921Y450062D01*
X201875Y450037D01*
X201826Y449985D01*
X201770Y449941D01*
X201742Y449897D01*
X201706Y449859D01*
X201676Y449794D01*
X201637Y449734D01*
X201624Y449683D01*
X201602Y449636D01*
X201594Y449565D01*
X201577Y449495D01*
X201581Y449443D01*
X201575Y449392D01*
X201590Y449321D01*
X201596Y449250D01*
X201616Y449202D01*
X201627Y449151D01*
X201664Y449090D01*
X201692Y449024D01*
X201737Y448968D01*
X201754Y448940D01*
X201771Y448925D01*
X201797Y448893D01*
X203606Y447084D01*
X205134Y443396D01*
X205134Y439404D01*
X203606Y435716D01*
X200784Y432894D01*
X197096Y431366D01*
X193104Y431366D01*
X189416Y432894D01*
X186594Y435716D01*
X185066Y439404D01*
X185066Y443396D01*
X186594Y447084D01*
X188403Y448893D01*
X188445Y448951D01*
X188494Y449003D01*
X188516Y449050D01*
X188546Y449092D01*
X188568Y449161D01*
X188598Y449226D01*
X188603Y449278D01*
X188619Y449328D01*
X188617Y449399D01*
X188625Y449470D01*
X188614Y449521D01*
X188612Y449573D01*
X188588Y449641D01*
X188573Y449711D01*
X188546Y449756D01*
X188528Y449804D01*
X188483Y449860D01*
X188446Y449922D01*
X188407Y449956D01*
X188374Y449996D01*
X188314Y450035D01*
X188260Y450082D01*
X188211Y450101D01*
X188167Y450129D01*
X188098Y450147D01*
X188031Y450174D01*
X187960Y450182D01*
X187929Y450190D01*
X187906Y450188D01*
X187865Y450192D01*
X176935Y450192D01*
X176865Y450181D01*
X176793Y450179D01*
X176744Y450161D01*
X176693Y450153D01*
X176629Y450119D01*
X176562Y450094D01*
X176521Y450062D01*
X176475Y450037D01*
X176426Y449985D01*
X176370Y449941D01*
X176342Y449897D01*
X176306Y449859D01*
X176276Y449794D01*
X176237Y449734D01*
X176224Y449683D01*
X176202Y449636D01*
X176194Y449565D01*
X176177Y449495D01*
X176181Y449443D01*
X176175Y449392D01*
X176190Y449321D01*
X176196Y449250D01*
X176216Y449202D01*
X176227Y449151D01*
X176264Y449090D01*
X176292Y449024D01*
X176337Y448968D01*
X176354Y448940D01*
X176371Y448925D01*
X176397Y448893D01*
X178206Y447084D01*
X179734Y443396D01*
X179734Y439404D01*
X178206Y435716D01*
X175384Y432894D01*
X171696Y431366D01*
X167704Y431366D01*
X164016Y432894D01*
X161194Y435716D01*
X159666Y439404D01*
X159666Y443396D01*
X161194Y447084D01*
X163003Y448893D01*
X163045Y448951D01*
X163094Y449003D01*
X163116Y449050D01*
X163146Y449092D01*
X163168Y449161D01*
X163198Y449226D01*
X163203Y449278D01*
X163219Y449328D01*
X163217Y449399D01*
X163225Y449470D01*
X163214Y449521D01*
X163212Y449573D01*
X163188Y449641D01*
X163173Y449711D01*
X163146Y449756D01*
X163128Y449804D01*
X163083Y449860D01*
X163046Y449922D01*
X163007Y449956D01*
X162974Y449996D01*
X162914Y450035D01*
X162860Y450082D01*
X162811Y450101D01*
X162767Y450129D01*
X162698Y450147D01*
X162631Y450174D01*
X162560Y450182D01*
X162529Y450190D01*
X162506Y450188D01*
X162465Y450192D01*
X155095Y450192D01*
X155075Y450189D01*
X155056Y450191D01*
X154954Y450169D01*
X154852Y450153D01*
X154835Y450143D01*
X154815Y450139D01*
X154726Y450086D01*
X154635Y450037D01*
X154621Y450023D01*
X154604Y450013D01*
X154537Y449934D01*
X154465Y449859D01*
X154457Y449841D01*
X154444Y449826D01*
X154405Y449730D01*
X154362Y449636D01*
X154360Y449616D01*
X154352Y449598D01*
X154334Y449431D01*
X154334Y432408D01*
X153292Y431366D01*
X135308Y431366D01*
X134266Y432408D01*
X134266Y449431D01*
X134263Y449451D01*
X134265Y449470D01*
X134243Y449572D01*
X134227Y449674D01*
X134217Y449691D01*
X134213Y449711D01*
X134160Y449800D01*
X134111Y449891D01*
X134097Y449905D01*
X134087Y449922D01*
X134008Y449989D01*
X133933Y450061D01*
X133915Y450069D01*
X133900Y450082D01*
X133804Y450121D01*
X133710Y450164D01*
X133690Y450166D01*
X133672Y450174D01*
X133505Y450192D01*
X40932Y450192D01*
X40836Y450177D01*
X40739Y450167D01*
X40715Y450157D01*
X40689Y450153D01*
X40603Y450107D01*
X40514Y450067D01*
X40495Y450050D01*
X40472Y450037D01*
X40405Y449967D01*
X40333Y449901D01*
X40320Y449878D01*
X40302Y449859D01*
X40261Y449771D01*
X40214Y449685D01*
X40210Y449660D01*
X40199Y449636D01*
X40188Y449539D01*
X40171Y449443D01*
X40175Y449417D01*
X40172Y449392D01*
X40192Y449297D01*
X40207Y449200D01*
X40218Y449177D01*
X40224Y449151D01*
X40274Y449067D01*
X40318Y448981D01*
X40337Y448963D01*
X40350Y448940D01*
X40424Y448877D01*
X40494Y448809D01*
X40522Y448793D01*
X40537Y448780D01*
X40568Y448768D01*
X40641Y448728D01*
X41375Y448424D01*
X47024Y442775D01*
X50081Y435394D01*
X50081Y427406D01*
X47024Y420025D01*
X41375Y414376D01*
X33994Y411319D01*
X26006Y411319D01*
X18625Y414376D01*
X12976Y420025D01*
X9919Y427406D01*
X9919Y435394D01*
X12976Y442775D01*
X18625Y448424D01*
X19359Y448728D01*
X19442Y448779D01*
X19528Y448825D01*
X19546Y448844D01*
X19568Y448857D01*
X19631Y448932D01*
X19698Y449003D01*
X19709Y449027D01*
X19725Y449047D01*
X19760Y449138D01*
X19801Y449226D01*
X19804Y449252D01*
X19813Y449276D01*
X19818Y449374D01*
X19828Y449470D01*
X19823Y449496D01*
X19824Y449522D01*
X19797Y449616D01*
X19776Y449711D01*
X19763Y449733D01*
X19755Y449758D01*
X19700Y449838D01*
X19650Y449922D01*
X19630Y449939D01*
X19615Y449960D01*
X19537Y450019D01*
X19463Y450082D01*
X19439Y450092D01*
X19418Y450107D01*
X19325Y450137D01*
X19235Y450174D01*
X19202Y450177D01*
X19184Y450183D01*
X19151Y450183D01*
X19068Y450192D01*
X5969Y450192D01*
X5949Y450189D01*
X5930Y450191D01*
X5828Y450169D01*
X5726Y450153D01*
X5709Y450143D01*
X5689Y450139D01*
X5600Y450086D01*
X5509Y450037D01*
X5495Y450023D01*
X5478Y450013D01*
X5411Y449934D01*
X5339Y449859D01*
X5331Y449841D01*
X5318Y449826D01*
X5279Y449730D01*
X5236Y449636D01*
X5234Y449616D01*
X5226Y449598D01*
X5208Y449431D01*
X5208Y5969D01*
X5211Y5949D01*
X5209Y5930D01*
X5231Y5828D01*
X5247Y5726D01*
X5257Y5709D01*
X5261Y5689D01*
X5314Y5600D01*
X5363Y5509D01*
X5377Y5495D01*
X5387Y5478D01*
X5466Y5411D01*
X5541Y5339D01*
X5559Y5331D01*
X5574Y5318D01*
X5670Y5279D01*
X5764Y5236D01*
X5784Y5234D01*
X5802Y5226D01*
X5969Y5208D01*
X21482Y5208D01*
X21578Y5223D01*
G37*
%LPC*%
G36*
X144274Y82387D02*
X144274Y82387D01*
X144271Y82406D01*
X144273Y82426D01*
X144260Y82486D01*
X144274Y82613D01*
X144274Y100041D01*
X145485Y100041D01*
X146131Y99868D01*
X146710Y99533D01*
X146741Y99502D01*
X146815Y99449D01*
X146885Y99389D01*
X146915Y99377D01*
X146941Y99358D01*
X147028Y99331D01*
X147113Y99297D01*
X147154Y99293D01*
X147176Y99286D01*
X147208Y99287D01*
X147280Y99279D01*
X152405Y99279D01*
X152416Y99269D01*
X152463Y99247D01*
X152505Y99216D01*
X152574Y99195D01*
X152639Y99165D01*
X152691Y99159D01*
X152740Y99144D01*
X152812Y99146D01*
X152883Y99138D01*
X152934Y99149D01*
X152986Y99150D01*
X153054Y99175D01*
X153124Y99190D01*
X153169Y99217D01*
X153217Y99235D01*
X153273Y99280D01*
X153335Y99316D01*
X153369Y99356D01*
X153409Y99388D01*
X153448Y99449D01*
X153495Y99503D01*
X153514Y99551D01*
X153542Y99595D01*
X153560Y99665D01*
X153587Y99731D01*
X153595Y99803D01*
X153603Y99834D01*
X153601Y99857D01*
X153605Y99898D01*
X153605Y290717D01*
X153591Y290807D01*
X153583Y290898D01*
X153571Y290928D01*
X153566Y290960D01*
X153523Y291041D01*
X153487Y291125D01*
X153461Y291157D01*
X153450Y291177D01*
X153427Y291200D01*
X153382Y291256D01*
X151637Y293001D01*
X151637Y296999D01*
X154465Y299827D01*
X158463Y299827D01*
X161291Y296999D01*
X161291Y293001D01*
X159418Y291128D01*
X159365Y291054D01*
X159305Y290984D01*
X159293Y290954D01*
X159274Y290928D01*
X159247Y290841D01*
X159213Y290756D01*
X159209Y290715D01*
X159202Y290693D01*
X159203Y290661D01*
X159195Y290589D01*
X159195Y290033D01*
X159206Y289962D01*
X159208Y289890D01*
X159226Y289841D01*
X159234Y289790D01*
X159268Y289726D01*
X159293Y289659D01*
X159325Y289618D01*
X159350Y289572D01*
X159402Y289523D01*
X159446Y289467D01*
X159490Y289439D01*
X159528Y289403D01*
X159593Y289373D01*
X159653Y289334D01*
X159704Y289321D01*
X159751Y289299D01*
X159822Y289292D01*
X159892Y289274D01*
X159944Y289278D01*
X159995Y289272D01*
X160066Y289288D01*
X160137Y289293D01*
X160185Y289314D01*
X160236Y289325D01*
X160297Y289361D01*
X160363Y289389D01*
X160419Y289434D01*
X160447Y289451D01*
X160462Y289469D01*
X160494Y289494D01*
X161069Y290069D01*
X165067Y290069D01*
X167044Y288092D01*
X167118Y288039D01*
X167188Y287979D01*
X167218Y287967D01*
X167244Y287948D01*
X167331Y287921D01*
X167416Y287887D01*
X167457Y287883D01*
X167479Y287876D01*
X167511Y287877D01*
X167583Y287869D01*
X262733Y287869D01*
X262823Y287883D01*
X262914Y287891D01*
X262944Y287903D01*
X262976Y287908D01*
X263056Y287951D01*
X263140Y287987D01*
X263172Y288013D01*
X263193Y288024D01*
X263215Y288047D01*
X263271Y288092D01*
X289082Y313903D01*
X289135Y313977D01*
X289195Y314046D01*
X289207Y314076D01*
X289226Y314102D01*
X289253Y314189D01*
X289287Y314274D01*
X289291Y314315D01*
X289298Y314337D01*
X289297Y314370D01*
X289305Y314441D01*
X289305Y316999D01*
X292133Y319827D01*
X296131Y319827D01*
X298959Y316999D01*
X298959Y313001D01*
X296131Y310173D01*
X293573Y310173D01*
X293483Y310159D01*
X293392Y310151D01*
X293362Y310139D01*
X293330Y310134D01*
X293250Y310091D01*
X293166Y310055D01*
X293134Y310029D01*
X293113Y310018D01*
X293091Y309995D01*
X293035Y309950D01*
X265364Y282279D01*
X167247Y282279D01*
X167157Y282265D01*
X167066Y282257D01*
X167036Y282245D01*
X167004Y282240D01*
X166923Y282197D01*
X166839Y282161D01*
X166807Y282135D01*
X166787Y282124D01*
X166764Y282101D01*
X166708Y282056D01*
X165918Y281266D01*
X165865Y281192D01*
X165805Y281122D01*
X165793Y281092D01*
X165774Y281066D01*
X165747Y280979D01*
X165713Y280894D01*
X165709Y280853D01*
X165702Y280831D01*
X165703Y280799D01*
X165695Y280727D01*
X165695Y100599D01*
X165714Y100482D01*
X165732Y100364D01*
X165734Y100360D01*
X165734Y100356D01*
X165790Y100251D01*
X165845Y100145D01*
X165848Y100142D01*
X165850Y100138D01*
X165936Y100056D01*
X166021Y99974D01*
X166025Y99972D01*
X166028Y99969D01*
X166135Y99919D01*
X166243Y99868D01*
X166247Y99867D01*
X166251Y99865D01*
X166367Y99852D01*
X166487Y99838D01*
X166492Y99839D01*
X166495Y99838D01*
X166509Y99841D01*
X166653Y99863D01*
X167316Y100041D01*
X168526Y100041D01*
X168526Y82613D01*
X168529Y82594D01*
X168527Y82574D01*
X168540Y82514D01*
X168526Y82387D01*
X168526Y64959D01*
X167316Y64959D01*
X166669Y65132D01*
X166090Y65467D01*
X166059Y65498D01*
X165985Y65551D01*
X165915Y65611D01*
X165885Y65623D01*
X165859Y65642D01*
X165772Y65669D01*
X165687Y65703D01*
X165646Y65707D01*
X165624Y65714D01*
X165592Y65713D01*
X165520Y65721D01*
X160413Y65721D01*
X160188Y65946D01*
X160172Y65958D01*
X160160Y65973D01*
X160073Y66029D01*
X159989Y66090D01*
X159970Y66096D01*
X159953Y66106D01*
X159852Y66132D01*
X159754Y66162D01*
X159734Y66162D01*
X159714Y66166D01*
X159611Y66158D01*
X159508Y66156D01*
X159489Y66149D01*
X159469Y66147D01*
X159374Y66107D01*
X159277Y66071D01*
X159261Y66059D01*
X159243Y66051D01*
X159112Y65946D01*
X158887Y65721D01*
X153913Y65721D01*
X153688Y65946D01*
X153672Y65958D01*
X153660Y65973D01*
X153573Y66029D01*
X153489Y66090D01*
X153470Y66096D01*
X153453Y66106D01*
X153352Y66132D01*
X153254Y66162D01*
X153234Y66162D01*
X153214Y66166D01*
X153111Y66158D01*
X153008Y66156D01*
X152989Y66149D01*
X152969Y66147D01*
X152874Y66107D01*
X152777Y66071D01*
X152761Y66059D01*
X152743Y66051D01*
X152612Y65946D01*
X152387Y65721D01*
X147280Y65721D01*
X147190Y65707D01*
X147099Y65699D01*
X147069Y65687D01*
X147037Y65682D01*
X146956Y65639D01*
X146872Y65603D01*
X146840Y65577D01*
X146820Y65566D01*
X146797Y65543D01*
X146741Y65498D01*
X146710Y65467D01*
X146131Y65132D01*
X145484Y64959D01*
X144274Y64959D01*
X144274Y82387D01*
G37*
%LPD*%
%LPC*%
G36*
X224692Y57657D02*
X224692Y57657D01*
X218097Y64252D01*
X218097Y64265D01*
X218078Y64382D01*
X218060Y64500D01*
X218058Y64504D01*
X218058Y64508D01*
X218002Y64612D01*
X217947Y64719D01*
X217944Y64722D01*
X217942Y64725D01*
X217856Y64807D01*
X217771Y64890D01*
X217767Y64892D01*
X217764Y64895D01*
X217656Y64945D01*
X217549Y64996D01*
X217545Y64997D01*
X217541Y64998D01*
X217423Y65012D01*
X217305Y65026D01*
X217300Y65025D01*
X217297Y65026D01*
X217283Y65023D01*
X217139Y65001D01*
X216984Y64959D01*
X215774Y64959D01*
X215774Y82387D01*
X215771Y82406D01*
X215773Y82426D01*
X215760Y82486D01*
X215774Y82613D01*
X215774Y100041D01*
X216985Y100041D01*
X217631Y99868D01*
X218210Y99533D01*
X218241Y99502D01*
X218315Y99449D01*
X218385Y99389D01*
X218415Y99377D01*
X218441Y99358D01*
X218528Y99331D01*
X218613Y99297D01*
X218654Y99293D01*
X218676Y99286D01*
X218708Y99287D01*
X218780Y99279D01*
X223836Y99279D01*
X223856Y99282D01*
X223875Y99280D01*
X223977Y99302D01*
X224079Y99318D01*
X224096Y99328D01*
X224116Y99332D01*
X224205Y99385D01*
X224296Y99434D01*
X224310Y99448D01*
X224327Y99458D01*
X224394Y99537D01*
X224466Y99612D01*
X224474Y99630D01*
X224487Y99645D01*
X224526Y99741D01*
X224569Y99835D01*
X224571Y99855D01*
X224579Y99873D01*
X224597Y100040D01*
X224597Y123223D01*
X224595Y123234D01*
X224596Y123241D01*
X224588Y123278D01*
X224583Y123313D01*
X224575Y123404D01*
X224563Y123433D01*
X224558Y123465D01*
X224515Y123546D01*
X224479Y123630D01*
X224453Y123662D01*
X224442Y123683D01*
X224419Y123705D01*
X224374Y123761D01*
X215517Y132618D01*
X215443Y132671D01*
X215374Y132731D01*
X215343Y132743D01*
X215317Y132762D01*
X215230Y132789D01*
X215145Y132823D01*
X215104Y132827D01*
X215082Y132834D01*
X215050Y132833D01*
X214979Y132841D01*
X213139Y132841D01*
X210311Y135669D01*
X210311Y139667D01*
X213139Y142495D01*
X217137Y142495D01*
X219965Y139667D01*
X219965Y137827D01*
X219979Y137737D01*
X219987Y137646D01*
X219999Y137617D01*
X220004Y137585D01*
X220047Y137504D01*
X220083Y137420D01*
X220109Y137388D01*
X220120Y137367D01*
X220143Y137345D01*
X220188Y137289D01*
X229798Y127679D01*
X229856Y127637D01*
X229908Y127588D01*
X229955Y127566D01*
X229997Y127535D01*
X230066Y127514D01*
X230131Y127484D01*
X230183Y127478D01*
X230233Y127463D01*
X230304Y127465D01*
X230375Y127457D01*
X230426Y127468D01*
X230478Y127469D01*
X230546Y127494D01*
X230616Y127509D01*
X230661Y127536D01*
X230709Y127554D01*
X230765Y127599D01*
X230827Y127636D01*
X230861Y127675D01*
X230901Y127708D01*
X230940Y127768D01*
X230987Y127822D01*
X231006Y127871D01*
X231034Y127915D01*
X231052Y127984D01*
X231079Y128051D01*
X231087Y128122D01*
X231095Y128153D01*
X231093Y128176D01*
X231097Y128217D01*
X231097Y133363D01*
X231083Y133453D01*
X231075Y133544D01*
X231063Y133574D01*
X231058Y133606D01*
X231015Y133687D01*
X230979Y133771D01*
X230953Y133803D01*
X230942Y133823D01*
X230919Y133846D01*
X230874Y133902D01*
X229615Y135161D01*
X229615Y139159D01*
X232443Y141987D01*
X236441Y141987D01*
X239269Y139159D01*
X239269Y135161D01*
X237926Y133818D01*
X237873Y133744D01*
X237813Y133674D01*
X237801Y133644D01*
X237782Y133618D01*
X237755Y133531D01*
X237721Y133446D01*
X237717Y133405D01*
X237710Y133383D01*
X237711Y133351D01*
X237703Y133279D01*
X237703Y100735D01*
X237722Y100618D01*
X237740Y100500D01*
X237742Y100496D01*
X237742Y100492D01*
X237798Y100388D01*
X237853Y100281D01*
X237856Y100278D01*
X237858Y100275D01*
X237944Y100193D01*
X238029Y100110D01*
X238033Y100108D01*
X238036Y100105D01*
X238144Y100055D01*
X238251Y100004D01*
X238255Y100003D01*
X238259Y100002D01*
X238377Y99988D01*
X238495Y99974D01*
X238500Y99975D01*
X238503Y99974D01*
X238517Y99977D01*
X238661Y99999D01*
X238816Y100041D01*
X240026Y100041D01*
X240026Y82613D01*
X240029Y82594D01*
X240027Y82574D01*
X240040Y82514D01*
X240026Y82387D01*
X240026Y64959D01*
X238816Y64959D01*
X238661Y65001D01*
X238542Y65013D01*
X238425Y65026D01*
X238420Y65025D01*
X238416Y65025D01*
X238301Y64999D01*
X238184Y64973D01*
X238181Y64971D01*
X238177Y64970D01*
X238075Y64908D01*
X237973Y64847D01*
X237970Y64844D01*
X237967Y64842D01*
X237890Y64751D01*
X237813Y64660D01*
X237812Y64656D01*
X237809Y64653D01*
X237766Y64543D01*
X237721Y64432D01*
X237721Y64427D01*
X237719Y64424D01*
X237719Y64410D01*
X237703Y64265D01*
X237703Y62852D01*
X232508Y57657D01*
X224692Y57657D01*
G37*
%LPD*%
%LPC*%
G36*
X241774Y82387D02*
X241774Y82387D01*
X241771Y82406D01*
X241773Y82426D01*
X241760Y82486D01*
X241774Y82613D01*
X241774Y100041D01*
X242984Y100041D01*
X243139Y99999D01*
X243258Y99987D01*
X243375Y99974D01*
X243380Y99975D01*
X243384Y99975D01*
X243499Y100001D01*
X243616Y100027D01*
X243619Y100029D01*
X243623Y100030D01*
X243725Y100092D01*
X243827Y100153D01*
X243830Y100156D01*
X243833Y100158D01*
X243910Y100249D01*
X243987Y100340D01*
X243988Y100344D01*
X243991Y100347D01*
X244034Y100457D01*
X244079Y100568D01*
X244079Y100573D01*
X244081Y100576D01*
X244081Y100590D01*
X244097Y100735D01*
X244097Y136246D01*
X244378Y136527D01*
X244431Y136601D01*
X244491Y136670D01*
X244503Y136701D01*
X244522Y136727D01*
X244549Y136814D01*
X244583Y136899D01*
X244587Y136940D01*
X244594Y136962D01*
X244593Y136994D01*
X244601Y137065D01*
X244601Y138905D01*
X247429Y141733D01*
X251427Y141733D01*
X254255Y138905D01*
X254255Y134907D01*
X251426Y132078D01*
X251425Y132078D01*
X251323Y132056D01*
X251221Y132040D01*
X251204Y132030D01*
X251184Y132026D01*
X251095Y131973D01*
X251004Y131924D01*
X250990Y131910D01*
X250973Y131900D01*
X250906Y131821D01*
X250834Y131746D01*
X250826Y131728D01*
X250813Y131713D01*
X250774Y131617D01*
X250731Y131523D01*
X250729Y131503D01*
X250721Y131485D01*
X250703Y131318D01*
X250703Y105573D01*
X250714Y105503D01*
X250716Y105431D01*
X250734Y105382D01*
X250742Y105331D01*
X250776Y105267D01*
X250801Y105200D01*
X250833Y105159D01*
X250858Y105113D01*
X250910Y105064D01*
X250954Y105008D01*
X250998Y104980D01*
X251036Y104944D01*
X251101Y104914D01*
X251161Y104875D01*
X251212Y104862D01*
X251259Y104840D01*
X251330Y104832D01*
X251400Y104815D01*
X251452Y104819D01*
X251503Y104813D01*
X251574Y104828D01*
X251645Y104834D01*
X251693Y104854D01*
X251744Y104865D01*
X251805Y104902D01*
X251871Y104930D01*
X251927Y104975D01*
X251955Y104992D01*
X251970Y105009D01*
X252002Y105035D01*
X256696Y109729D01*
X270608Y109729D01*
X279275Y101062D01*
X279349Y101009D01*
X279418Y100949D01*
X279449Y100937D01*
X279475Y100918D01*
X279562Y100891D01*
X279647Y100857D01*
X279688Y100853D01*
X279710Y100846D01*
X279742Y100847D01*
X279813Y100839D01*
X281653Y100839D01*
X284481Y98011D01*
X284481Y94013D01*
X281653Y91185D01*
X277655Y91185D01*
X274827Y94013D01*
X274827Y95853D01*
X274813Y95943D01*
X274805Y96034D01*
X274793Y96063D01*
X274788Y96095D01*
X274745Y96176D01*
X274709Y96260D01*
X274683Y96292D01*
X274672Y96313D01*
X274649Y96335D01*
X274604Y96391D01*
X268095Y102900D01*
X268021Y102953D01*
X267952Y103013D01*
X267921Y103025D01*
X267895Y103044D01*
X267808Y103071D01*
X267723Y103105D01*
X267682Y103109D01*
X267660Y103116D01*
X267628Y103115D01*
X267557Y103123D01*
X259747Y103123D01*
X259657Y103109D01*
X259566Y103101D01*
X259537Y103089D01*
X259505Y103084D01*
X259424Y103041D01*
X259340Y103005D01*
X259308Y102979D01*
X259287Y102968D01*
X259265Y102945D01*
X259209Y102900D01*
X257639Y101330D01*
X257611Y101291D01*
X257576Y101258D01*
X257539Y101192D01*
X257495Y101130D01*
X257481Y101084D01*
X257458Y101042D01*
X257445Y100968D01*
X257423Y100895D01*
X257424Y100847D01*
X257416Y100800D01*
X257427Y100725D01*
X257429Y100649D01*
X257446Y100604D01*
X257453Y100557D01*
X257488Y100489D01*
X257514Y100418D01*
X257544Y100381D01*
X257566Y100338D01*
X257620Y100285D01*
X257667Y100226D01*
X257708Y100200D01*
X257742Y100167D01*
X257811Y100134D01*
X257874Y100093D01*
X257921Y100082D01*
X257964Y100061D01*
X258039Y100052D01*
X258113Y100033D01*
X258161Y100037D01*
X258208Y100031D01*
X258271Y100041D01*
X259526Y100041D01*
X259526Y82613D01*
X259529Y82594D01*
X259527Y82574D01*
X259540Y82514D01*
X259526Y82387D01*
X259526Y64959D01*
X258316Y64959D01*
X257669Y65132D01*
X257090Y65467D01*
X257059Y65498D01*
X256985Y65551D01*
X256915Y65611D01*
X256885Y65623D01*
X256859Y65642D01*
X256772Y65669D01*
X256687Y65703D01*
X256646Y65707D01*
X256624Y65714D01*
X256592Y65713D01*
X256520Y65721D01*
X251413Y65721D01*
X251188Y65946D01*
X251172Y65958D01*
X251160Y65973D01*
X251073Y66029D01*
X250989Y66090D01*
X250970Y66096D01*
X250953Y66106D01*
X250852Y66132D01*
X250754Y66162D01*
X250734Y66162D01*
X250714Y66166D01*
X250611Y66158D01*
X250508Y66156D01*
X250489Y66149D01*
X250469Y66147D01*
X250374Y66107D01*
X250277Y66071D01*
X250261Y66059D01*
X250243Y66051D01*
X250112Y65946D01*
X249887Y65721D01*
X244780Y65721D01*
X244690Y65707D01*
X244599Y65699D01*
X244569Y65687D01*
X244537Y65682D01*
X244456Y65639D01*
X244372Y65603D01*
X244340Y65577D01*
X244320Y65566D01*
X244297Y65543D01*
X244241Y65498D01*
X244210Y65467D01*
X243631Y65132D01*
X242984Y64959D01*
X241774Y64959D01*
X241774Y82387D01*
G37*
%LPD*%
%LPC*%
G36*
X176774Y82387D02*
X176774Y82387D01*
X176771Y82406D01*
X176773Y82426D01*
X176760Y82486D01*
X176774Y82613D01*
X176774Y100041D01*
X177984Y100041D01*
X178647Y99863D01*
X178766Y99851D01*
X178883Y99838D01*
X178888Y99839D01*
X178892Y99839D01*
X179007Y99865D01*
X179124Y99891D01*
X179127Y99893D01*
X179131Y99894D01*
X179233Y99956D01*
X179335Y100017D01*
X179338Y100020D01*
X179341Y100022D01*
X179417Y100113D01*
X179495Y100204D01*
X179496Y100208D01*
X179499Y100211D01*
X179542Y100320D01*
X179587Y100432D01*
X179587Y100437D01*
X179589Y100440D01*
X179589Y100453D01*
X179605Y100599D01*
X179605Y109671D01*
X179591Y109761D01*
X179583Y109852D01*
X179571Y109882D01*
X179566Y109914D01*
X179523Y109995D01*
X179487Y110079D01*
X179461Y110111D01*
X179450Y110131D01*
X179427Y110154D01*
X179382Y110210D01*
X177545Y112047D01*
X177545Y116045D01*
X180373Y118873D01*
X184389Y118873D01*
X184408Y118855D01*
X184455Y118833D01*
X184497Y118803D01*
X184566Y118782D01*
X184631Y118751D01*
X184683Y118746D01*
X184732Y118730D01*
X184804Y118732D01*
X184875Y118724D01*
X184926Y118735D01*
X184978Y118737D01*
X185046Y118761D01*
X185116Y118777D01*
X185161Y118803D01*
X185209Y118821D01*
X185265Y118866D01*
X185327Y118903D01*
X185361Y118942D01*
X185401Y118975D01*
X185440Y119035D01*
X185487Y119090D01*
X185506Y119138D01*
X185534Y119182D01*
X185552Y119251D01*
X185579Y119318D01*
X185587Y119389D01*
X185595Y119420D01*
X185593Y119444D01*
X185597Y119485D01*
X185597Y131489D01*
X185583Y131579D01*
X185575Y131670D01*
X185563Y131699D01*
X185558Y131731D01*
X185515Y131812D01*
X185479Y131896D01*
X185453Y131928D01*
X185442Y131949D01*
X185419Y131971D01*
X185374Y132027D01*
X185291Y132110D01*
X185217Y132163D01*
X185148Y132223D01*
X185117Y132235D01*
X185091Y132254D01*
X185004Y132281D01*
X184919Y132315D01*
X184878Y132319D01*
X184856Y132326D01*
X184824Y132325D01*
X184753Y132333D01*
X182913Y132333D01*
X180085Y135161D01*
X180085Y139159D01*
X182913Y141987D01*
X186911Y141987D01*
X189739Y139159D01*
X189739Y137319D01*
X189753Y137229D01*
X189761Y137138D01*
X189773Y137109D01*
X189778Y137077D01*
X189821Y136996D01*
X189857Y136912D01*
X189883Y136880D01*
X189894Y136859D01*
X189917Y136837D01*
X189962Y136781D01*
X192203Y134540D01*
X192203Y100735D01*
X192222Y100618D01*
X192240Y100500D01*
X192242Y100496D01*
X192242Y100492D01*
X192298Y100388D01*
X192353Y100281D01*
X192356Y100278D01*
X192358Y100275D01*
X192444Y100193D01*
X192529Y100110D01*
X192533Y100108D01*
X192536Y100105D01*
X192644Y100055D01*
X192751Y100004D01*
X192755Y100003D01*
X192759Y100002D01*
X192877Y99988D01*
X192995Y99974D01*
X193000Y99975D01*
X193003Y99974D01*
X193017Y99977D01*
X193161Y99999D01*
X193316Y100041D01*
X194526Y100041D01*
X194526Y82613D01*
X194529Y82594D01*
X194527Y82574D01*
X194540Y82514D01*
X194526Y82387D01*
X194526Y64959D01*
X193316Y64959D01*
X192669Y65132D01*
X192090Y65467D01*
X192059Y65498D01*
X191985Y65551D01*
X191915Y65611D01*
X191885Y65623D01*
X191859Y65642D01*
X191772Y65669D01*
X191687Y65703D01*
X191646Y65707D01*
X191624Y65714D01*
X191592Y65713D01*
X191520Y65721D01*
X186413Y65721D01*
X186188Y65946D01*
X186172Y65958D01*
X186160Y65973D01*
X186073Y66029D01*
X185989Y66090D01*
X185970Y66096D01*
X185953Y66106D01*
X185852Y66132D01*
X185754Y66162D01*
X185734Y66162D01*
X185714Y66166D01*
X185611Y66158D01*
X185508Y66156D01*
X185489Y66149D01*
X185469Y66147D01*
X185374Y66107D01*
X185277Y66071D01*
X185261Y66059D01*
X185243Y66051D01*
X185112Y65946D01*
X184887Y65721D01*
X179780Y65721D01*
X179690Y65707D01*
X179599Y65699D01*
X179569Y65687D01*
X179537Y65682D01*
X179456Y65639D01*
X179372Y65603D01*
X179340Y65577D01*
X179320Y65566D01*
X179297Y65543D01*
X179241Y65498D01*
X179210Y65467D01*
X178631Y65132D01*
X177984Y64959D01*
X176774Y64959D01*
X176774Y82387D01*
G37*
%LPD*%
%LPC*%
G36*
X62771Y52831D02*
X62771Y52831D01*
X59943Y55659D01*
X59943Y59657D01*
X62771Y62485D01*
X66769Y62485D01*
X68070Y61184D01*
X68144Y61131D01*
X68214Y61071D01*
X68244Y61059D01*
X68270Y61040D01*
X68357Y61013D01*
X68442Y60979D01*
X68483Y60975D01*
X68505Y60968D01*
X68537Y60969D01*
X68609Y60961D01*
X103219Y60961D01*
X103309Y60975D01*
X103400Y60983D01*
X103429Y60995D01*
X103461Y61000D01*
X103542Y61043D01*
X103626Y61079D01*
X103658Y61105D01*
X103679Y61116D01*
X103701Y61139D01*
X103757Y61184D01*
X106233Y63660D01*
X106275Y63718D01*
X106324Y63770D01*
X106346Y63817D01*
X106377Y63859D01*
X106398Y63928D01*
X106428Y63993D01*
X106434Y64045D01*
X106449Y64095D01*
X106447Y64166D01*
X106455Y64238D01*
X106444Y64288D01*
X106443Y64340D01*
X106418Y64408D01*
X106403Y64478D01*
X106376Y64522D01*
X106358Y64571D01*
X106313Y64627D01*
X106276Y64689D01*
X106237Y64723D01*
X106204Y64763D01*
X106144Y64802D01*
X106090Y64849D01*
X106041Y64868D01*
X105997Y64896D01*
X105928Y64914D01*
X105861Y64941D01*
X105790Y64949D01*
X105759Y64957D01*
X105736Y64955D01*
X105695Y64959D01*
X105274Y64959D01*
X105274Y82387D01*
X105271Y82406D01*
X105273Y82426D01*
X105260Y82486D01*
X105274Y82613D01*
X105274Y100041D01*
X106485Y100041D01*
X107131Y99868D01*
X107710Y99533D01*
X107741Y99502D01*
X107815Y99449D01*
X107885Y99389D01*
X107915Y99377D01*
X107941Y99358D01*
X108028Y99331D01*
X108113Y99297D01*
X108154Y99293D01*
X108176Y99286D01*
X108208Y99287D01*
X108280Y99279D01*
X113520Y99279D01*
X113610Y99293D01*
X113701Y99301D01*
X113731Y99313D01*
X113763Y99318D01*
X113844Y99361D01*
X113928Y99397D01*
X113960Y99423D01*
X113980Y99434D01*
X114003Y99457D01*
X114059Y99502D01*
X114090Y99533D01*
X114669Y99868D01*
X115316Y100041D01*
X116526Y100041D01*
X116526Y82613D01*
X116529Y82594D01*
X116527Y82574D01*
X116540Y82514D01*
X116526Y82387D01*
X116526Y64959D01*
X115316Y64959D01*
X115161Y65001D01*
X115042Y65013D01*
X114925Y65026D01*
X114920Y65025D01*
X114916Y65025D01*
X114801Y64999D01*
X114684Y64973D01*
X114681Y64971D01*
X114677Y64970D01*
X114575Y64908D01*
X114473Y64847D01*
X114470Y64844D01*
X114467Y64842D01*
X114390Y64751D01*
X114313Y64660D01*
X114312Y64656D01*
X114309Y64653D01*
X114266Y64543D01*
X114221Y64432D01*
X114221Y64427D01*
X114219Y64424D01*
X114219Y64410D01*
X114203Y64265D01*
X114203Y62288D01*
X106270Y54355D01*
X68609Y54355D01*
X68519Y54341D01*
X68428Y54333D01*
X68398Y54321D01*
X68366Y54316D01*
X68285Y54273D01*
X68201Y54237D01*
X68169Y54211D01*
X68149Y54200D01*
X68126Y54177D01*
X68070Y54132D01*
X66769Y52831D01*
X62771Y52831D01*
G37*
%LPD*%
%LPC*%
G36*
X196274Y82387D02*
X196274Y82387D01*
X196271Y82406D01*
X196273Y82426D01*
X196260Y82486D01*
X196274Y82613D01*
X196274Y100041D01*
X197484Y100041D01*
X197639Y99999D01*
X197758Y99987D01*
X197875Y99974D01*
X197880Y99975D01*
X197884Y99975D01*
X197999Y100001D01*
X198116Y100027D01*
X198119Y100029D01*
X198123Y100030D01*
X198225Y100092D01*
X198327Y100153D01*
X198330Y100156D01*
X198333Y100158D01*
X198410Y100249D01*
X198487Y100340D01*
X198488Y100344D01*
X198491Y100347D01*
X198534Y100457D01*
X198579Y100568D01*
X198579Y100573D01*
X198581Y100576D01*
X198581Y100590D01*
X198597Y100735D01*
X198597Y131573D01*
X198593Y131601D01*
X198594Y131615D01*
X198582Y131672D01*
X198575Y131754D01*
X198563Y131784D01*
X198558Y131816D01*
X198546Y131838D01*
X198542Y131855D01*
X198509Y131910D01*
X198479Y131981D01*
X198453Y132013D01*
X198442Y132033D01*
X198426Y132049D01*
X198416Y132066D01*
X198399Y132080D01*
X198374Y132112D01*
X195325Y135161D01*
X195325Y139159D01*
X198153Y141987D01*
X202151Y141987D01*
X204979Y139159D01*
X204979Y137319D01*
X204993Y137229D01*
X205001Y137138D01*
X205013Y137109D01*
X205018Y137077D01*
X205061Y136996D01*
X205097Y136912D01*
X205123Y136880D01*
X205134Y136859D01*
X205157Y136837D01*
X205202Y136781D01*
X205203Y136780D01*
X205203Y100735D01*
X205222Y100618D01*
X205240Y100500D01*
X205242Y100496D01*
X205242Y100492D01*
X205298Y100388D01*
X205353Y100281D01*
X205356Y100278D01*
X205358Y100275D01*
X205444Y100193D01*
X205529Y100110D01*
X205533Y100108D01*
X205536Y100105D01*
X205644Y100055D01*
X205751Y100004D01*
X205755Y100003D01*
X205759Y100002D01*
X205877Y99988D01*
X205995Y99974D01*
X206000Y99975D01*
X206003Y99974D01*
X206017Y99977D01*
X206161Y99999D01*
X206316Y100041D01*
X207526Y100041D01*
X207526Y82613D01*
X207529Y82594D01*
X207527Y82574D01*
X207540Y82514D01*
X207526Y82387D01*
X207526Y64959D01*
X206316Y64959D01*
X205669Y65132D01*
X205090Y65467D01*
X205059Y65498D01*
X204985Y65551D01*
X204915Y65611D01*
X204885Y65623D01*
X204859Y65642D01*
X204772Y65669D01*
X204687Y65703D01*
X204646Y65707D01*
X204624Y65714D01*
X204592Y65713D01*
X204520Y65721D01*
X199280Y65721D01*
X199190Y65707D01*
X199099Y65699D01*
X199069Y65687D01*
X199037Y65682D01*
X198956Y65639D01*
X198872Y65603D01*
X198840Y65577D01*
X198820Y65566D01*
X198797Y65543D01*
X198741Y65498D01*
X198710Y65467D01*
X198131Y65132D01*
X197484Y64959D01*
X196274Y64959D01*
X196274Y82387D01*
G37*
%LPD*%
%LPC*%
G36*
X144559Y272033D02*
X144559Y272033D01*
X141731Y274861D01*
X141731Y278859D01*
X143032Y280160D01*
X143085Y280234D01*
X143145Y280304D01*
X143157Y280334D01*
X143176Y280360D01*
X143203Y280447D01*
X143237Y280532D01*
X143241Y280573D01*
X143248Y280595D01*
X143247Y280627D01*
X143255Y280699D01*
X143255Y301161D01*
X143241Y301251D01*
X143233Y301342D01*
X143221Y301372D01*
X143216Y301404D01*
X143173Y301485D01*
X143137Y301569D01*
X143111Y301601D01*
X143100Y301621D01*
X143077Y301644D01*
X143032Y301700D01*
X141731Y303001D01*
X141731Y306999D01*
X144559Y309827D01*
X148557Y309827D01*
X151385Y306999D01*
X151385Y303001D01*
X150084Y301700D01*
X150031Y301626D01*
X149971Y301556D01*
X149959Y301526D01*
X149940Y301500D01*
X149913Y301413D01*
X149879Y301328D01*
X149875Y301287D01*
X149868Y301265D01*
X149869Y301233D01*
X149861Y301161D01*
X149861Y280699D01*
X149875Y280609D01*
X149883Y280518D01*
X149895Y280488D01*
X149900Y280456D01*
X149943Y280375D01*
X149979Y280291D01*
X150005Y280259D01*
X150016Y280239D01*
X150039Y280216D01*
X150084Y280160D01*
X151385Y278859D01*
X151385Y274861D01*
X148557Y272033D01*
X144559Y272033D01*
G37*
%LPD*%
%LPC*%
G36*
X124774Y83374D02*
X124774Y83374D01*
X124774Y100041D01*
X125985Y100041D01*
X126631Y99868D01*
X126769Y99787D01*
X126833Y99764D01*
X126892Y99731D01*
X126947Y99720D01*
X126999Y99701D01*
X127067Y99698D01*
X127134Y99686D01*
X127189Y99694D01*
X127245Y99692D01*
X127310Y99711D01*
X127377Y99720D01*
X127450Y99752D01*
X127481Y99761D01*
X127498Y99773D01*
X127531Y99788D01*
X127669Y99868D01*
X128316Y100041D01*
X129526Y100041D01*
X129526Y83374D01*
X124774Y83374D01*
G37*
%LPD*%
%LPC*%
G36*
X170274Y83374D02*
X170274Y83374D01*
X170274Y100041D01*
X171485Y100041D01*
X172131Y99868D01*
X172269Y99787D01*
X172333Y99764D01*
X172392Y99731D01*
X172447Y99720D01*
X172499Y99701D01*
X172567Y99698D01*
X172634Y99686D01*
X172689Y99694D01*
X172745Y99692D01*
X172810Y99711D01*
X172877Y99720D01*
X172950Y99752D01*
X172981Y99761D01*
X172998Y99773D01*
X173031Y99788D01*
X173169Y99868D01*
X173816Y100041D01*
X175026Y100041D01*
X175026Y83374D01*
X170274Y83374D01*
G37*
%LPD*%
%LPC*%
G36*
X209274Y83374D02*
X209274Y83374D01*
X209274Y100041D01*
X210485Y100041D01*
X211131Y99868D01*
X211269Y99787D01*
X211333Y99764D01*
X211392Y99731D01*
X211447Y99720D01*
X211499Y99701D01*
X211567Y99698D01*
X211634Y99686D01*
X211689Y99694D01*
X211745Y99692D01*
X211810Y99711D01*
X211877Y99720D01*
X211950Y99752D01*
X211981Y99761D01*
X211998Y99773D01*
X212031Y99788D01*
X212169Y99868D01*
X212816Y100041D01*
X214026Y100041D01*
X214026Y83374D01*
X209274Y83374D01*
G37*
%LPD*%
%LPC*%
G36*
X137774Y83374D02*
X137774Y83374D01*
X137774Y100041D01*
X138985Y100041D01*
X139631Y99868D01*
X139769Y99787D01*
X139833Y99764D01*
X139892Y99731D01*
X139947Y99720D01*
X139999Y99701D01*
X140067Y99698D01*
X140134Y99686D01*
X140189Y99694D01*
X140245Y99692D01*
X140310Y99711D01*
X140377Y99720D01*
X140450Y99752D01*
X140481Y99761D01*
X140498Y99773D01*
X140531Y99788D01*
X140669Y99868D01*
X141316Y100041D01*
X142526Y100041D01*
X142526Y83374D01*
X137774Y83374D01*
G37*
%LPD*%
%LPC*%
G36*
X131274Y83374D02*
X131274Y83374D01*
X131274Y100041D01*
X132485Y100041D01*
X133131Y99868D01*
X133269Y99787D01*
X133333Y99764D01*
X133392Y99731D01*
X133447Y99720D01*
X133499Y99701D01*
X133567Y99698D01*
X133634Y99686D01*
X133689Y99694D01*
X133745Y99692D01*
X133810Y99711D01*
X133877Y99720D01*
X133950Y99752D01*
X133981Y99761D01*
X133998Y99773D01*
X134031Y99788D01*
X134169Y99868D01*
X134816Y100041D01*
X136026Y100041D01*
X136026Y83374D01*
X131274Y83374D01*
G37*
%LPD*%
%LPC*%
G36*
X118274Y83374D02*
X118274Y83374D01*
X118274Y100041D01*
X119485Y100041D01*
X120131Y99868D01*
X120269Y99788D01*
X120333Y99764D01*
X120392Y99731D01*
X120447Y99720D01*
X120499Y99701D01*
X120567Y99698D01*
X120633Y99686D01*
X120689Y99694D01*
X120745Y99691D01*
X120810Y99711D01*
X120877Y99720D01*
X120950Y99752D01*
X120981Y99761D01*
X120998Y99773D01*
X121031Y99787D01*
X121169Y99868D01*
X121816Y100041D01*
X123026Y100041D01*
X123026Y83374D01*
X118274Y83374D01*
G37*
%LPD*%
%LPC*%
G36*
X118274Y81626D02*
X118274Y81626D01*
X123026Y81626D01*
X123026Y64959D01*
X121816Y64959D01*
X121169Y65132D01*
X121031Y65213D01*
X120967Y65236D01*
X120908Y65269D01*
X120853Y65280D01*
X120801Y65299D01*
X120733Y65302D01*
X120666Y65314D01*
X120611Y65306D01*
X120555Y65308D01*
X120490Y65289D01*
X120423Y65280D01*
X120350Y65248D01*
X120319Y65239D01*
X120302Y65227D01*
X120269Y65212D01*
X120131Y65132D01*
X119484Y64959D01*
X118274Y64959D01*
X118274Y81626D01*
G37*
%LPD*%
%LPC*%
G36*
X209274Y81626D02*
X209274Y81626D01*
X214026Y81626D01*
X214026Y64959D01*
X212816Y64959D01*
X212169Y65132D01*
X212031Y65212D01*
X211967Y65236D01*
X211908Y65269D01*
X211853Y65280D01*
X211801Y65299D01*
X211733Y65302D01*
X211667Y65314D01*
X211611Y65306D01*
X211555Y65309D01*
X211490Y65289D01*
X211423Y65280D01*
X211350Y65248D01*
X211319Y65239D01*
X211302Y65227D01*
X211269Y65213D01*
X211131Y65132D01*
X210484Y64959D01*
X209274Y64959D01*
X209274Y81626D01*
G37*
%LPD*%
%LPC*%
G36*
X170274Y81626D02*
X170274Y81626D01*
X175026Y81626D01*
X175026Y64959D01*
X173816Y64959D01*
X173169Y65132D01*
X173031Y65212D01*
X172967Y65236D01*
X172908Y65269D01*
X172853Y65280D01*
X172801Y65299D01*
X172733Y65302D01*
X172667Y65314D01*
X172611Y65306D01*
X172555Y65309D01*
X172490Y65289D01*
X172423Y65280D01*
X172350Y65248D01*
X172319Y65239D01*
X172302Y65227D01*
X172269Y65213D01*
X172131Y65132D01*
X171484Y64959D01*
X170274Y64959D01*
X170274Y81626D01*
G37*
%LPD*%
%LPC*%
G36*
X137774Y81626D02*
X137774Y81626D01*
X142526Y81626D01*
X142526Y64959D01*
X141316Y64959D01*
X140669Y65132D01*
X140531Y65212D01*
X140467Y65236D01*
X140408Y65269D01*
X140353Y65280D01*
X140301Y65299D01*
X140233Y65302D01*
X140167Y65314D01*
X140111Y65306D01*
X140055Y65309D01*
X139990Y65289D01*
X139923Y65280D01*
X139850Y65248D01*
X139819Y65239D01*
X139802Y65227D01*
X139769Y65213D01*
X139631Y65132D01*
X138984Y64959D01*
X137774Y64959D01*
X137774Y81626D01*
G37*
%LPD*%
%LPC*%
G36*
X131274Y81626D02*
X131274Y81626D01*
X136026Y81626D01*
X136026Y64959D01*
X134816Y64959D01*
X134169Y65132D01*
X134031Y65212D01*
X133967Y65236D01*
X133908Y65269D01*
X133853Y65280D01*
X133801Y65299D01*
X133733Y65302D01*
X133667Y65314D01*
X133611Y65306D01*
X133555Y65309D01*
X133490Y65289D01*
X133423Y65280D01*
X133350Y65248D01*
X133319Y65239D01*
X133302Y65227D01*
X133269Y65213D01*
X133131Y65132D01*
X132484Y64959D01*
X131274Y64959D01*
X131274Y81626D01*
G37*
%LPD*%
%LPC*%
G36*
X124774Y81626D02*
X124774Y81626D01*
X129526Y81626D01*
X129526Y64959D01*
X128316Y64959D01*
X127669Y65132D01*
X127531Y65212D01*
X127467Y65236D01*
X127408Y65269D01*
X127353Y65280D01*
X127301Y65299D01*
X127233Y65302D01*
X127167Y65314D01*
X127111Y65306D01*
X127055Y65309D01*
X126990Y65289D01*
X126923Y65280D01*
X126850Y65248D01*
X126819Y65239D01*
X126802Y65227D01*
X126769Y65213D01*
X126631Y65132D01*
X125984Y64959D01*
X124774Y64959D01*
X124774Y81626D01*
G37*
%LPD*%
%LPC*%
G36*
X222023Y439877D02*
X222023Y439877D01*
X231189Y439877D01*
X231030Y438872D01*
X230505Y437256D01*
X229733Y435742D01*
X228734Y434367D01*
X227533Y433166D01*
X226158Y432167D01*
X224644Y431395D01*
X223028Y430870D01*
X222023Y430711D01*
X222023Y439877D01*
G37*
%LPD*%
%LPC*%
G36*
X217972Y430870D02*
X217972Y430870D01*
X216356Y431395D01*
X214842Y432167D01*
X213467Y433166D01*
X212266Y434367D01*
X211267Y435742D01*
X210495Y437256D01*
X209970Y438872D01*
X209811Y439877D01*
X218977Y439877D01*
X218977Y430711D01*
X217972Y430870D01*
G37*
%LPD*%
%LPC*%
G36*
X261274Y83374D02*
X261274Y83374D01*
X261274Y100041D01*
X262485Y100041D01*
X263131Y99868D01*
X263710Y99533D01*
X264183Y99060D01*
X264518Y98481D01*
X264691Y97834D01*
X264691Y83374D01*
X261274Y83374D01*
G37*
%LPD*%
%LPC*%
G36*
X261274Y81626D02*
X261274Y81626D01*
X264691Y81626D01*
X264691Y67166D01*
X264518Y66519D01*
X264183Y65940D01*
X263710Y65467D01*
X263131Y65132D01*
X262484Y64959D01*
X261274Y64959D01*
X261274Y81626D01*
G37*
%LPD*%
%LPC*%
G36*
X100109Y83374D02*
X100109Y83374D01*
X100109Y97834D01*
X100282Y98481D01*
X100617Y99060D01*
X101090Y99533D01*
X101669Y99868D01*
X102316Y100041D01*
X103526Y100041D01*
X103526Y83374D01*
X100109Y83374D01*
G37*
%LPD*%
%LPC*%
G36*
X102316Y64959D02*
X102316Y64959D01*
X101669Y65132D01*
X101090Y65467D01*
X100617Y65940D01*
X100282Y66519D01*
X100109Y67166D01*
X100109Y81626D01*
X103526Y81626D01*
X103526Y64959D01*
X102316Y64959D01*
G37*
%LPD*%
D10*
X260400Y82500D03*
X253900Y82500D03*
X247400Y82500D03*
X240900Y82500D03*
X234400Y82500D03*
X227900Y82500D03*
X221400Y82500D03*
X214900Y82500D03*
X208400Y82500D03*
X201900Y82500D03*
X195400Y82500D03*
X188900Y82500D03*
X182400Y82500D03*
X175900Y82500D03*
X169400Y82500D03*
X162900Y82500D03*
X156400Y82500D03*
X149900Y82500D03*
X143400Y82500D03*
X136900Y82500D03*
X130400Y82500D03*
X123900Y82500D03*
X117400Y82500D03*
X110900Y82500D03*
X104400Y82500D03*
D11*
X144300Y441400D03*
D12*
X169700Y441400D03*
X195100Y441400D03*
X220500Y441400D03*
D13*
X15240Y312420D03*
X15240Y299720D03*
X15240Y287020D03*
X53340Y332740D03*
X60960Y340360D03*
X68580Y347980D03*
X347980Y312420D03*
X347980Y299720D03*
X347980Y289560D03*
X172720Y276860D03*
X172720Y269240D03*
X172720Y261620D03*
X22860Y86360D03*
X22860Y76200D03*
X22860Y66040D03*
X22860Y55880D03*
X33020Y55880D03*
X43180Y55880D03*
X294640Y71120D03*
X294640Y60960D03*
X294640Y53340D03*
X284480Y53340D03*
X274320Y53340D03*
X261620Y137160D03*
X271780Y137160D03*
X281940Y137160D03*
X172720Y137160D03*
X76200Y68580D03*
X86360Y76200D03*
X238760Y441960D03*
X248920Y441960D03*
X259080Y441960D03*
X269240Y441960D03*
X146558Y276860D03*
D14*
X146558Y305000D01*
D13*
X146558Y305000D03*
D14*
X234400Y137118D02*
X234400Y82500D01*
X234400Y137118D02*
X234442Y137160D01*
D13*
X234442Y137160D03*
D14*
X234400Y82500D02*
X234400Y64220D01*
X231140Y60960D01*
X226060Y60960D01*
X221400Y65620D01*
X221400Y82500D01*
D15*
X162900Y82500D02*
X162900Y285074D01*
X163068Y285242D01*
D13*
X163068Y285242D03*
X294132Y315000D03*
D15*
X264206Y285074D01*
X162900Y285074D01*
X156400Y294936D02*
X156400Y82500D01*
X156400Y294936D02*
X156464Y295000D01*
D13*
X156464Y295000D03*
D15*
X156400Y82500D02*
X149900Y82500D01*
X182400Y82500D02*
X182400Y114018D01*
X182372Y114046D01*
D13*
X182372Y114046D03*
D14*
X188900Y133172D02*
X188900Y82500D01*
X188900Y133172D02*
X184912Y137160D01*
D13*
X184912Y137160D03*
D14*
X201900Y135412D02*
X201900Y82500D01*
X201900Y135412D02*
X200152Y137160D01*
D13*
X200152Y137160D03*
D14*
X227900Y124906D02*
X227900Y82500D01*
X227900Y124906D02*
X215138Y137668D01*
D13*
X215138Y137668D03*
D14*
X247400Y134878D02*
X247400Y82500D01*
X247400Y134878D02*
X249428Y136906D01*
D13*
X249428Y136906D03*
X64770Y57658D03*
D14*
X104902Y57658D01*
X110900Y63656D02*
X110900Y82500D01*
X110900Y63656D02*
X104902Y57658D01*
D13*
X279654Y96012D03*
D14*
X269240Y106426D01*
X253900Y102262D02*
X253900Y82500D01*
X258064Y106426D02*
X269240Y106426D01*
X258064Y106426D02*
X253900Y102262D01*
M02*
